<?xml version="1.0" encoding="utf-8"?>
<!-- Generator: Adobe Illustrator 18.0.0, SVG Export Plug-In . SVG Version: 6.00 Build 0)  -->
<!DOCTYPE svg PUBLIC "-//W3C//DTD SVG 1.1//EN" "http://www.w3.org/Graphics/SVG/1.1/DTD/svg11.dtd">
<svg version="1.1" xmlns="http://www.w3.org/2000/svg" xmlns:xlink="http://www.w3.org/1999/xlink" x="0px" y="0px"
	 viewBox="0 0 100 100" enable-background="new 0 0 100 100" xml:space="preserve">
<g id="svg3682" sodipodi:docname="03_3d_replication_90.svg" inkscape:version="0.48.2 r9819" xmlns:dc="http://purl.org/dc/elements/1.1/" xmlns:cc="http://creativecommons.org/ns#" xmlns:sodipodi="http://sodipodi.sourceforge.net/DTD/sodipodi-0.dtd" xmlns:svg="http://www.w3.org/2000/svg" xmlns:rdf="http://www.w3.org/1999/02/22-rdf-syntax-ns#" xmlns:inkscape="http://www.inkscape.org/namespaces/inkscape">
	
		<sodipodi:namedview  inkscape:window-height="1245" inkscape:window-maximized="0" inkscape:window-width="1719" inkscape:window-x="0" inkscape:pageopacity="0" inkscape:window-y="22" inkscape:current-layer="svg3682" inkscape:pageshadow="2" objecttolerance="10" borderopacity="1" id="namedview7" guidetolerance="10" bordercolor="#666666" showgrid="false" pagecolor="#ffffff" gridtolerance="10" inkscape:cx="-91.144068" inkscape:cy="45" inkscape:zoom="2.6222222">
		</sodipodi:namedview>
	<g>
		<defs>
			<path id="SVGID_1_" d="M39.4,25.5c10.1-4.2,19.1-9.5,10.4-20v0c-9,3.1-16.6,11.1-23.9,17.3c1.3-5.3,4.9-11.9-1.2-13.3
				c-6,0.7-6.2,6.7-7.2,12.1C5.9,24.8,8.3,32.4,6,38c-1.9,5.8-2.1,10.8,5.6,12.6c-3.8,18.7,9.8,20.7,20.1,25.9
				c-4.4,2.9-17,7.4-8.7,9.9c-3.2,6.3,2,8.5,14.5,5.3c4.1,5.9,35.4,5.3,37.1-3.9c24.5-7,20.1-22.9,10.5-20.6
				c-4.5-24.8-15.9-37.8-40.9-27.9C34.8,38.9,32,34.4,30.9,29c1.6-0.7,3.4-1.4,5.1-2.1"/>
		</defs>
		<clipPath id="SVGID_2_">
			<use xlink:href="#SVGID_1_"  overflow="visible"/>
		</clipPath>
		<path clip-path="url(#SVGID_2_)" d="M96.2,55.2c0.5,0,0.9-0.4,0.9-0.9l0,0c0,0,0,0,0,0c0-0.5-0.4-0.9-0.9-0.9
			c-1.6,0-2.3-0.5-3.2-1.2c-1-0.8-2.1-1.6-4.3-1.6c-2.2,0-3.3,0.9-4.3,1.6c-0.9,0.7-1.6,1.2-3.2,1.2c-1.6,0-2.3-0.5-3.2-1.2
			c-1-0.8-2.1-1.6-4.3-1.6c-2.2,0-3.3,0.9-4.3,1.6c-0.9,0.7-1.6,1.2-3.2,1.2c-1.6,0-2.3-0.5-3.2-1.2c-1-0.8-2.1-1.6-4.3-1.6
			c-2.2,0-3.3,0.9-4.3,1.6c-0.9,0.7-1.6,1.2-3.2,1.2s-2.3-0.5-3.2-1.2c-1-0.8-2.1-1.6-4.3-1.6c-2.2,0-3.3,0.9-4.3,1.6
			c-0.9,0.7-1.6,1.2-3.2,1.2c-0.5,0-0.9,0.4-0.9,0.9c0,0,0,0,0,0l0,0c0,0.5,0.4,0.9,0.9,0.9c1.6,0,2.3,0.5,3.2,1.2
			c0.3,0.2,0.6,0.4,0.9,0.7c-0.3,0.2-0.7,0.4-0.9,0.7c-0.9,0.7-1.6,1.2-3.2,1.2c-0.5,0-0.9,0.4-0.9,0.9c0,0,0,0,0,0l0,0
			c0,0.5,0.4,0.9,0.9,0.9c1.6,0,2.3,0.5,3.2,1.2c0.3,0.2,0.6,0.4,0.9,0.7c-0.3,0.2-0.7,0.4-0.9,0.7c-0.9,0.7-1.6,1.2-3.2,1.2
			c-0.5,0-0.9,0.4-0.9,0.9c0,0,0,0,0,0l0,0c0,0.5,0.4,0.9,0.9,0.9c1.6,0,2.3,0.5,3.2,1.2c0.3,0.2,0.6,0.4,0.9,0.7
			c-0.3,0.2-0.7,0.4-0.9,0.7c-0.9,0.7-1.6,1.2-3.2,1.2c-0.5,0-0.9,0.4-0.9,0.9l0,0l0,0c0,0.5,0.4,0.9,0.9,0.9c1.6,0,2.3,0.5,3.2,1.2
			c0.3,0.2,0.6,0.4,0.9,0.7c-0.3,0.2-0.7,0.4-0.9,0.7C38,75.4,37.3,76,35.7,76c-0.5,0-0.9,0.4-0.9,0.9l0,0l0,0
			c0,0.5,0.4,0.9,0.9,0.9c1.6,0,2.3,0.5,3.2,1.2c0.3,0.2,0.6,0.4,0.9,0.7c-0.3,0.2-0.7,0.4-0.9,0.7c-0.9,0.7-1.6,1.2-3.2,1.2
			c-0.5,0-0.9,0.4-0.9,0.9l0,0l0,0c0,0.5,0.4,0.9,0.9,0.9c1.6,0,2.3,0.5,3.2,1.2c0.3,0.2,0.6,0.4,0.9,0.7c-0.3,0.2-0.7,0.4-0.9,0.7
			c-0.9,0.7-1.6,1.2-3.2,1.2c-0.5,0-0.9,0.4-0.9,0.9c0,0,0,0,0,0l0,0c0,0.5,0.4,0.9,0.9,0.9c1.6,0,2.3,0.5,3.2,1.2
			c0.3,0.2,0.6,0.4,0.9,0.7c-0.3,0.2-0.7,0.4-0.9,0.7C38,92.4,37.3,93,35.7,93c-0.5,0-0.9,0.4-0.9,0.9l0,0l0,0
			c0,0.5,0.4,0.9,0.9,0.9c1.6,0,2.3,0.5,3.2,1.2c1,0.8,2.1,1.6,4.3,1.6c2.2,0,3.3-0.9,4.3-1.6c0.9-0.7,1.6-1.2,3.2-1.2
			s2.3,0.5,3.2,1.2c1,0.8,2.1,1.6,4.3,1.6c2.2,0,3.3-0.9,4.3-1.6c0.9-0.7,1.6-1.2,3.2-1.2c1.6,0,2.3,0.5,3.2,1.2
			c1,0.8,2.1,1.6,4.3,1.6s3.3-0.9,4.3-1.6c0.9-0.7,1.6-1.2,3.2-1.2c1.6,0,2.3,0.5,3.2,1.2c1,0.8,2.1,1.6,4.3,1.6
			c2.2,0,3.3-0.9,4.3-1.6c0.9-0.7,1.6-1.2,3.2-1.2c0.5,0,0.9-0.4,0.9-0.9l0,0l0,0c0-0.5-0.4-0.9-0.9-0.9c-1.6,0-2.3-0.5-3.2-1.2
			c-0.3-0.2-0.6-0.4-0.9-0.7c0.3-0.2,0.7-0.4,0.9-0.7c0.9-0.7,1.6-1.2,3.2-1.2c0.5,0,0.9-0.4,0.9-0.9l0,0c0,0,0,0,0,0
			c0-0.5-0.4-0.9-0.9-0.9c-1.6,0-2.3-0.5-3.2-1.2c-0.3-0.2-0.6-0.4-0.9-0.7c0.3-0.2,0.7-0.4,0.9-0.7c0.9-0.7,1.6-1.2,3.2-1.2
			c0.5,0,0.9-0.4,0.9-0.9l0,0l0,0c0-0.5-0.4-0.9-0.9-0.9c-1.6,0-2.3-0.5-3.2-1.2c-0.3-0.2-0.6-0.4-0.9-0.7c0.3-0.2,0.7-0.4,0.9-0.7
			c0.9-0.7,1.6-1.2,3.2-1.2c0.5,0,0.9-0.4,0.9-0.9l0,0l0,0c0-0.5-0.4-0.9-0.9-0.9c-1.6,0-2.3-0.5-3.2-1.2c-0.3-0.2-0.6-0.4-0.9-0.7
			c0.3-0.2,0.7-0.4,0.9-0.7c0.9-0.7,1.6-1.2,3.2-1.2c0.5,0,0.9-0.4,0.9-0.9l0,0l0,0c0-0.5-0.4-0.9-0.9-0.9c-1.6,0-2.3-0.5-3.2-1.2
			c-0.3-0.2-0.6-0.4-0.9-0.7c0.3-0.2,0.7-0.4,0.9-0.7c0.9-0.7,1.6-1.2,3.2-1.2c0.5,0,0.9-0.4,0.9-0.9l0,0c0,0,0,0,0,0
			c0-0.5-0.4-0.9-0.9-0.9c-1.6,0-2.3-0.5-3.2-1.2c-0.3-0.2-0.6-0.4-0.9-0.7c0.3-0.2,0.7-0.4,0.9-0.7c0.9-0.7,1.6-1.2,3.2-1.2
			c0.5,0,0.9-0.4,0.9-0.9l0,0c0,0,0,0,0,0c0-0.5-0.4-0.9-0.9-0.9c-1.6,0-2.3-0.5-3.2-1.2c-0.3-0.2-0.6-0.4-0.9-0.7
			c0.3-0.2,0.7-0.4,0.9-0.7C93.9,55.7,94.6,55.2,96.2,55.2z M88.6,52.3c1.6,0,2.3,0.5,3.2,1.2c0.3,0.2,0.6,0.4,0.9,0.7
			c-0.3,0.2-0.7,0.4-0.9,0.7c-0.9,0.7-1.6,1.2-3.2,1.2c-1.6,0-2.3-0.5-3.2-1.2c-0.3-0.2-0.6-0.4-0.9-0.7c0.3-0.2,0.7-0.4,0.9-0.7
			C86.3,52.9,87,52.3,88.6,52.3z M81.1,93c-1.6,0-2.3-0.5-3.2-1.2c-0.3-0.2-0.6-0.4-0.9-0.7c0.3-0.2,0.7-0.4,0.9-0.7
			c0.9-0.7,1.6-1.2,3.2-1.2c1.6,0,2.3,0.5,3.2,1.2c0.3,0.2,0.6,0.4,0.9,0.7c-0.3,0.2-0.7,0.4-0.9,0.7C83.4,92.4,82.6,93,81.1,93z
			 M65.9,93c-1.6,0-2.3-0.5-3.2-1.2c-0.3-0.2-0.6-0.4-0.9-0.7c0.3-0.2,0.7-0.4,0.9-0.7c0.9-0.7,1.6-1.2,3.2-1.2
			c1.6,0,2.3,0.5,3.2,1.2c0.3,0.2,0.6,0.4,0.9,0.7c-0.3,0.2-0.7,0.4-0.9,0.7C68.2,92.4,67.5,93,65.9,93z M50.8,93
			c-1.6,0-2.3-0.5-3.2-1.2c-0.3-0.2-0.6-0.4-0.9-0.7c0.3-0.2,0.7-0.4,0.9-0.7c0.9-0.7,1.6-1.2,3.2-1.2s2.3,0.5,3.2,1.2
			c0.3,0.2,0.6,0.4,0.9,0.7c-0.3,0.2-0.7,0.4-0.9,0.7C53.1,92.4,52.4,93,50.8,93z M50.8,55.2c1.6,0,2.3,0.5,3.2,1.2
			c0.3,0.2,0.6,0.4,0.9,0.7c-0.3,0.2-0.7,0.4-0.9,0.7c-0.9,0.7-1.6,1.2-3.2,1.2s-2.3-0.5-3.2-1.2c-0.3-0.2-0.6-0.4-0.9-0.7
			c0.3-0.2,0.7-0.4,0.9-0.7C48.5,55.7,49.2,55.2,50.8,55.2z M65.9,55.2c1.6,0,2.3,0.5,3.2,1.2c0.3,0.2,0.6,0.4,0.9,0.7
			c-0.3,0.2-0.7,0.4-0.9,0.7c-0.9,0.7-1.6,1.2-3.2,1.2c-1.6,0-2.3-0.5-3.2-1.2c-0.3-0.2-0.6-0.4-0.9-0.7c0.3-0.2,0.7-0.4,0.9-0.7
			C63.6,55.7,64.4,55.2,65.9,55.2z M73.5,90.1c-1.6,0-2.3-0.5-3.2-1.2c-0.3-0.2-0.6-0.4-0.9-0.7c0.3-0.2,0.7-0.4,0.9-0.7
			c0.9-0.7,1.6-1.2,3.2-1.2c1.6,0,2.3,0.5,3.2,1.2c0.3,0.2,0.6,0.4,0.9,0.7c-0.3,0.2-0.7,0.4-0.9,0.7C75.8,89.6,75.1,90.1,73.5,90.1
			z M58.4,90.1c-1.6,0-2.3-0.5-3.2-1.2c-0.3-0.2-0.6-0.4-0.9-0.7c0.3-0.2,0.7-0.4,0.9-0.7c0.9-0.7,1.6-1.2,3.2-1.2s2.3,0.5,3.2,1.2
			c0.3,0.2,0.6,0.4,0.9,0.7c-0.3,0.2-0.7,0.4-0.9,0.7C60.7,89.6,59.9,90.1,58.4,90.1z M58.4,58c1.6,0,2.3,0.5,3.2,1.2
			c0.3,0.2,0.6,0.4,0.9,0.7c-0.3,0.2-0.7,0.4-0.9,0.7c-0.9,0.7-1.6,1.2-3.2,1.2c-1.6,0-2.3-0.5-3.2-1.2c-0.3-0.2-0.6-0.4-0.9-0.7
			c0.3-0.2,0.7-0.4,0.9-0.7C56.1,58.5,56.8,58,58.4,58z M65.9,87.3c-1.6,0-2.3-0.5-3.2-1.2c-0.3-0.2-0.6-0.4-0.9-0.7
			c0.3-0.2,0.7-0.4,0.9-0.7c0.9-0.7,1.6-1.2,3.2-1.2c1.6,0,2.3,0.5,3.2,1.2c0.3,0.2,0.6,0.4,0.9,0.7c-0.3,0.2-0.7,0.4-0.9,0.7
			C68.2,86.8,67.5,87.3,65.9,87.3z M65.9,81.6c-1.6,0-2.3-0.5-3.2-1.2c-0.3-0.2-0.6-0.4-0.9-0.7c0.3-0.2,0.7-0.4,0.9-0.7
			c0.9-0.7,1.6-1.2,3.2-1.2c1.6,0,2.3,0.5,3.2,1.2c0.3,0.2,0.6,0.4,0.9,0.7c-0.3,0.2-0.7,0.4-0.9,0.7C68.2,81.1,67.5,81.6,65.9,81.6
			z M65.9,76c-1.6,0-2.3-0.5-3.2-1.2c-0.3-0.2-0.6-0.4-0.9-0.7c0.3-0.2,0.7-0.4,0.9-0.7c0.9-0.7,1.6-1.2,3.2-1.2
			c1.6,0,2.3,0.5,3.2,1.2c0.3,0.2,0.6,0.4,0.9,0.7c-0.3,0.2-0.7,0.4-0.9,0.7C68.2,75.4,67.5,76,65.9,76z M65.9,70.3
			c-1.6,0-2.3-0.5-3.2-1.2c-0.3-0.2-0.6-0.4-0.9-0.7c0.3-0.2,0.7-0.4,0.9-0.7c0.9-0.7,1.6-1.2,3.2-1.2c1.6,0,2.3,0.5,3.2,1.2
			c0.3,0.2,0.6,0.4,0.9,0.7c-0.3,0.2-0.7,0.4-0.9,0.7C68.2,69.7,67.5,70.3,65.9,70.3z M65.9,64.6c-1.6,0-2.3-0.5-3.2-1.2
			c-0.3-0.2-0.6-0.4-0.9-0.7c0.3-0.2,0.7-0.4,0.9-0.7c0.9-0.7,1.6-1.2,3.2-1.2c1.6,0,2.3,0.5,3.2,1.2c0.3,0.2,0.6,0.4,0.9,0.7
			c-0.3,0.2-0.7,0.4-0.9,0.7C68.2,64.1,67.5,64.6,65.9,64.6z M58.4,63.7c1.6,0,2.3,0.5,3.2,1.2c0.3,0.2,0.6,0.4,0.9,0.7
			c-0.3,0.2-0.7,0.4-0.9,0.7c-0.9,0.7-1.6,1.2-3.2,1.2c-1.6,0-2.3-0.5-3.2-1.2c-0.3-0.2-0.6-0.4-0.9-0.7c0.3-0.2,0.7-0.4,0.9-0.7
			C56.1,64.2,56.8,63.7,58.4,63.7z M58.4,69.3c1.6,0,2.3,0.5,3.2,1.2c0.3,0.2,0.6,0.4,0.9,0.7c-0.3,0.2-0.7,0.4-0.9,0.7
			c-0.9,0.7-1.6,1.2-3.2,1.2c-1.6,0-2.3-0.5-3.2-1.2c-0.3-0.2-0.6-0.4-0.9-0.7c0.3-0.2,0.7-0.4,0.9-0.7
			C56.1,69.9,56.8,69.3,58.4,69.3z M58.4,75c1.6,0,2.3,0.5,3.2,1.2c0.3,0.2,0.6,0.4,0.9,0.7c-0.3,0.2-0.7,0.4-0.9,0.7
			c-0.9,0.7-1.6,1.2-3.2,1.2c-1.6,0-2.3-0.5-3.2-1.2c-0.3-0.2-0.6-0.4-0.9-0.7c0.3-0.2,0.7-0.4,0.9-0.7C56.1,75.6,56.8,75,58.4,75z
			 M58.4,80.7c1.6,0,2.3,0.5,3.2,1.2c0.3,0.2,0.6,0.4,0.9,0.7c-0.3,0.2-0.7,0.4-0.9,0.7c-0.9,0.7-1.6,1.2-3.2,1.2
			c-1.6,0-2.3-0.5-3.2-1.2c-0.3-0.2-0.6-0.4-0.9-0.7c0.3-0.2,0.7-0.4,0.9-0.7C56.1,81.2,56.8,80.7,58.4,80.7z M73.5,84.5
			c-1.6,0-2.3-0.5-3.2-1.2c-0.3-0.2-0.6-0.4-0.9-0.7c0.3-0.2,0.7-0.4,0.9-0.7c0.9-0.7,1.6-1.2,3.2-1.2c1.6,0,2.3,0.5,3.2,1.2
			c0.3,0.2,0.6,0.4,0.9,0.7c-0.3,0.2-0.7,0.4-0.9,0.7C75.8,83.9,75.1,84.5,73.5,84.5z M73.5,78.8c-1.6,0-2.3-0.5-3.2-1.2
			c-0.3-0.2-0.6-0.4-0.9-0.7c0.3-0.2,0.7-0.4,0.9-0.7c0.9-0.7,1.6-1.2,3.2-1.2c1.6,0,2.3,0.5,3.2,1.2c0.3,0.2,0.6,0.4,0.9,0.7
			c-0.3,0.2-0.7,0.4-0.9,0.7C75.8,78.3,75.1,78.8,73.5,78.8z M73.5,73.1c-1.6,0-2.3-0.5-3.2-1.2c-0.3-0.2-0.6-0.4-0.9-0.7
			c0.3-0.2,0.7-0.4,0.9-0.7c0.9-0.7,1.6-1.2,3.2-1.2c1.6,0,2.3,0.5,3.2,1.2c0.3,0.2,0.6,0.4,0.9,0.7c-0.3,0.2-0.7,0.4-0.9,0.7
			C75.8,72.6,75.1,73.1,73.5,73.1z M73.5,67.5c-1.6,0-2.3-0.5-3.2-1.2c-0.3-0.2-0.6-0.4-0.9-0.7c0.3-0.2,0.7-0.4,0.9-0.7
			c0.9-0.7,1.6-1.2,3.2-1.2c1.6,0,2.3,0.5,3.2,1.2c0.3,0.2,0.6,0.4,0.9,0.7c-0.3,0.2-0.7,0.4-0.9,0.7C75.8,66.9,75.1,67.5,73.5,67.5
			z M73.5,61.8c-1.6,0-2.3-0.5-3.2-1.2c-0.3-0.2-0.6-0.4-0.9-0.7c0.3-0.2,0.7-0.4,0.9-0.7c0.9-0.7,1.6-1.2,3.2-1.2
			c1.6,0,2.3,0.5,3.2,1.2c0.3,0.2,0.6,0.4,0.9,0.7c-0.3,0.2-0.7,0.4-0.9,0.7C75.8,61.2,75.1,61.8,73.5,61.8z M46.5,59.2
			c0.3,0.2,0.6,0.4,0.9,0.7c-0.3,0.2-0.7,0.4-0.9,0.7c-0.9,0.7-1.6,1.2-3.2,1.2s-2.3-0.5-3.2-1.2c-0.3-0.2-0.6-0.4-0.9-0.7
			c0.3-0.2,0.7-0.4,0.9-0.7c0.9-0.7,1.6-1.2,3.2-1.2S45.5,58.5,46.5,59.2z M47.6,62.1c0.9-0.7,1.6-1.2,3.2-1.2s2.3,0.5,3.2,1.2
			c0.3,0.2,0.6,0.4,0.9,0.7c-0.3,0.2-0.7,0.4-0.9,0.7c-0.9,0.7-1.6,1.2-3.2,1.2s-2.3-0.5-3.2-1.2c-0.3-0.2-0.6-0.4-0.9-0.7
			C47,62.5,47.3,62.3,47.6,62.1z M46.5,64.9c0.3,0.2,0.6,0.4,0.9,0.7c-0.3,0.2-0.7,0.4-0.9,0.7c-0.9,0.7-1.6,1.2-3.2,1.2
			s-2.3-0.5-3.2-1.2c-0.3-0.2-0.6-0.4-0.9-0.7c0.3-0.2,0.7-0.4,0.9-0.7c0.9-0.7,1.6-1.2,3.2-1.2S45.5,64.2,46.5,64.9z M47.6,67.7
			c0.9-0.7,1.6-1.2,3.2-1.2s2.3,0.5,3.2,1.2c0.3,0.2,0.6,0.4,0.9,0.7c-0.3,0.2-0.7,0.4-0.9,0.7c-0.9,0.7-1.6,1.2-3.2,1.2
			s-2.3-0.5-3.2-1.2c-0.3-0.2-0.6-0.4-0.9-0.7C47,68.2,47.3,68,47.6,67.7z M46.5,70.6c0.3,0.2,0.6,0.4,0.9,0.7
			c-0.3,0.2-0.7,0.4-0.9,0.7c-0.9,0.7-1.6,1.2-3.2,1.2s-2.3-0.5-3.2-1.2c-0.3-0.2-0.6-0.4-0.9-0.7c0.3-0.2,0.7-0.4,0.9-0.7
			c0.9-0.7,1.6-1.2,3.2-1.2S45.5,69.9,46.5,70.6z M47.6,73.4c0.9-0.7,1.6-1.2,3.2-1.2s2.3,0.5,3.2,1.2c0.3,0.2,0.6,0.4,0.9,0.7
			c-0.3,0.2-0.7,0.4-0.9,0.7c-0.9,0.7-1.6,1.2-3.2,1.2s-2.3-0.5-3.2-1.2c-0.3-0.2-0.6-0.4-0.9-0.7C47,73.9,47.3,73.6,47.6,73.4z
			 M46.5,76.2c0.3,0.2,0.6,0.4,0.9,0.7c-0.3,0.2-0.7,0.4-0.9,0.7c-0.9,0.7-1.6,1.2-3.2,1.2s-2.3-0.5-3.2-1.2
			c-0.3-0.2-0.6-0.4-0.9-0.7c0.3-0.2,0.7-0.4,0.9-0.7c0.9-0.7,1.6-1.2,3.2-1.2S45.5,75.6,46.5,76.2z M47.6,79.1
			c0.9-0.7,1.6-1.2,3.2-1.2s2.3,0.5,3.2,1.2c0.3,0.2,0.6,0.4,0.9,0.7c-0.3,0.2-0.7,0.4-0.9,0.7c-0.9,0.7-1.6,1.2-3.2,1.2
			s-2.3-0.5-3.2-1.2c-0.3-0.2-0.6-0.4-0.9-0.7C47,79.5,47.3,79.3,47.6,79.1z M46.5,81.9c0.3,0.2,0.6,0.4,0.9,0.7
			c-0.3,0.2-0.7,0.4-0.9,0.7c-0.9,0.7-1.6,1.2-3.2,1.2s-2.3-0.5-3.2-1.2c-0.3-0.2-0.6-0.4-0.9-0.7c0.3-0.2,0.7-0.4,0.9-0.7
			c0.9-0.7,1.6-1.2,3.2-1.2S45.5,81.2,46.5,81.9z M47.6,84.8c0.9-0.7,1.6-1.2,3.2-1.2s2.3,0.5,3.2,1.2c0.3,0.2,0.6,0.4,0.9,0.7
			c-0.3,0.2-0.7,0.4-0.9,0.7c-0.9,0.7-1.6,1.2-3.2,1.2s-2.3-0.5-3.2-1.2c-0.3-0.2-0.6-0.4-0.9-0.7C47,85.2,47.3,85,47.6,84.8z
			 M46.5,87.6c0.3,0.2,0.6,0.4,0.9,0.7c-0.3,0.2-0.7,0.4-0.9,0.7c-0.9,0.7-1.6,1.2-3.2,1.2s-2.3-0.5-3.2-1.2
			c-0.3-0.2-0.6-0.4-0.9-0.7c0.3-0.2,0.7-0.4,0.9-0.7c0.9-0.7,1.6-1.2,3.2-1.2S45.5,86.9,46.5,87.6z M85.4,88.9
			c-0.3-0.2-0.6-0.4-0.9-0.7c0.3-0.2,0.7-0.4,0.9-0.7c0.9-0.7,1.6-1.2,3.2-1.2c1.6,0,2.3,0.5,3.2,1.2c0.3,0.2,0.6,0.4,0.9,0.7
			c-0.3,0.2-0.7,0.4-0.9,0.7c-0.9,0.7-1.6,1.2-3.2,1.2C87,90.1,86.3,89.6,85.4,88.9z M84.3,86.1c-0.9,0.7-1.6,1.2-3.2,1.2
			c-1.6,0-2.3-0.5-3.2-1.2c-0.3-0.2-0.6-0.4-0.9-0.7c0.3-0.2,0.7-0.4,0.9-0.7c0.9-0.7,1.6-1.2,3.2-1.2s2.3,0.5,3.2,1.2
			c0.3,0.2,0.6,0.4,0.9,0.7C84.9,85.6,84.6,85.9,84.3,86.1z M85.4,83.2c-0.3-0.2-0.6-0.4-0.9-0.7c0.3-0.2,0.7-0.4,0.9-0.7
			c0.9-0.7,1.6-1.2,3.2-1.2c1.6,0,2.3,0.5,3.2,1.2c0.3,0.2,0.6,0.4,0.9,0.7c-0.3,0.2-0.7,0.4-0.9,0.7c-0.9,0.7-1.6,1.2-3.2,1.2
			C87,84.5,86.3,83.9,85.4,83.2z M84.3,80.4c-0.9,0.7-1.6,1.2-3.2,1.2c-1.6,0-2.3-0.5-3.2-1.2c-0.3-0.2-0.6-0.4-0.9-0.7
			c0.3-0.2,0.7-0.4,0.9-0.7c0.9-0.7,1.6-1.2,3.2-1.2s2.3,0.5,3.2,1.2c0.3,0.2,0.6,0.4,0.9,0.7C84.9,80,84.6,80.2,84.3,80.4z
			 M85.4,77.6c-0.3-0.2-0.6-0.4-0.9-0.7c0.3-0.2,0.7-0.4,0.9-0.7c0.9-0.7,1.6-1.2,3.2-1.2c1.6,0,2.3,0.5,3.2,1.2
			c0.3,0.2,0.6,0.4,0.9,0.7c-0.3,0.2-0.7,0.4-0.9,0.7c-0.9,0.7-1.6,1.2-3.2,1.2C87,78.8,86.3,78.3,85.4,77.6z M84.3,74.7
			c-0.9,0.7-1.6,1.2-3.2,1.2c-1.6,0-2.3-0.5-3.2-1.2c-0.3-0.2-0.6-0.4-0.9-0.7c0.3-0.2,0.7-0.4,0.9-0.7c0.9-0.7,1.6-1.2,3.2-1.2
			s2.3,0.5,3.2,1.2c0.3,0.2,0.6,0.4,0.9,0.7C84.9,74.3,84.6,74.5,84.3,74.7z M85.4,71.9c-0.3-0.2-0.6-0.4-0.9-0.7
			c0.3-0.2,0.7-0.4,0.9-0.7c0.9-0.7,1.6-1.2,3.2-1.2c1.6,0,2.3,0.5,3.2,1.2c0.3,0.2,0.6,0.4,0.9,0.7c-0.3,0.2-0.7,0.4-0.9,0.7
			c-0.9,0.7-1.6,1.2-3.2,1.2C87,73.1,86.3,72.6,85.4,71.9z M84.3,69.1c-0.9,0.7-1.6,1.2-3.2,1.2c-1.6,0-2.3-0.5-3.2-1.2
			c-0.3-0.2-0.6-0.4-0.9-0.7c0.3-0.2,0.7-0.4,0.9-0.7c0.9-0.7,1.6-1.2,3.2-1.2s2.3,0.5,3.2,1.2c0.3,0.2,0.6,0.4,0.9,0.7
			C84.9,68.6,84.6,68.8,84.3,69.1z M85.4,66.2c-0.3-0.2-0.6-0.4-0.9-0.7c0.3-0.2,0.7-0.4,0.9-0.7c0.9-0.7,1.6-1.2,3.2-1.2
			c1.6,0,2.3,0.5,3.2,1.2c0.3,0.2,0.6,0.4,0.9,0.7c-0.3,0.2-0.7,0.4-0.9,0.7c-0.9,0.7-1.6,1.2-3.2,1.2C87,67.5,86.3,66.9,85.4,66.2z
			 M84.3,63.4c-0.9,0.7-1.6,1.2-3.2,1.2c-1.6,0-2.3-0.5-3.2-1.2c-0.3-0.2-0.6-0.4-0.9-0.7c0.3-0.2,0.7-0.4,0.9-0.7
			c0.9-0.7,1.6-1.2,3.2-1.2s2.3,0.5,3.2,1.2c0.3,0.2,0.6,0.4,0.9,0.7C84.9,62.9,84.6,63.2,84.3,63.4z M85.4,60.6
			c-0.3-0.2-0.6-0.4-0.9-0.7c0.3-0.2,0.7-0.4,0.9-0.7c0.9-0.7,1.6-1.2,3.2-1.2c1.6,0,2.3,0.5,3.2,1.2c0.3,0.2,0.6,0.4,0.9,0.7
			c-0.3,0.2-0.7,0.4-0.9,0.7c-0.9,0.7-1.6,1.2-3.2,1.2C87,61.8,86.3,61.2,85.4,60.6z M84.3,57.7c-0.9,0.7-1.6,1.2-3.2,1.2
			c-1.6,0-2.3-0.5-3.2-1.2c-0.3-0.2-0.6-0.4-0.9-0.7c0.3-0.2,0.7-0.4,0.9-0.7c0.9-0.7,1.6-1.2,3.2-1.2s2.3,0.5,3.2,1.2
			c0.3,0.2,0.6,0.4,0.9,0.7C84.9,57.3,84.6,57.5,84.3,57.7z M73.5,52.3c1.6,0,2.3,0.5,3.2,1.2c0.3,0.2,0.6,0.4,0.9,0.7
			c-0.3,0.2-0.7,0.4-0.9,0.7c-0.9,0.7-1.6,1.2-3.2,1.2c-1.6,0-2.3-0.5-3.2-1.2c-0.3-0.2-0.6-0.4-0.9-0.7c0.3-0.2,0.7-0.4,0.9-0.7
			C71.2,52.9,71.9,52.3,73.5,52.3z M58.4,52.3c1.6,0,2.3,0.5,3.2,1.2c0.3,0.2,0.6,0.4,0.9,0.7c-0.3,0.2-0.7,0.4-0.9,0.7
			c-0.9,0.7-1.6,1.2-3.2,1.2c-1.6,0-2.3-0.5-3.2-1.2c-0.3-0.2-0.6-0.4-0.9-0.7c0.3-0.2,0.7-0.4,0.9-0.7
			C56.1,52.9,56.8,52.3,58.4,52.3z M43.2,52.3c1.6,0,2.3,0.5,3.2,1.2c0.3,0.2,0.6,0.4,0.9,0.7c-0.3,0.2-0.7,0.4-0.9,0.7
			c-0.9,0.7-1.6,1.2-3.2,1.2s-2.3-0.5-3.2-1.2c-0.3-0.2-0.6-0.4-0.9-0.7c0.3-0.2,0.7-0.4,0.9-0.7C40.9,52.9,41.7,52.3,43.2,52.3z
			 M43.2,95.8c-1.6,0-2.3-0.5-3.2-1.2c-0.3-0.2-0.6-0.4-0.9-0.7c0.3-0.2,0.7-0.4,0.9-0.7c0.9-0.7,1.6-1.2,3.2-1.2
			c1.6,0,2.3,0.5,3.2,1.2c0.3,0.2,0.6,0.4,0.9,0.7c-0.3,0.2-0.7,0.4-0.9,0.7C45.5,95.3,44.8,95.8,43.2,95.8z M58.4,95.8
			c-1.6,0-2.3-0.5-3.2-1.2c-0.3-0.2-0.6-0.4-0.9-0.7c0.3-0.2,0.7-0.4,0.9-0.7c0.9-0.7,1.6-1.2,3.2-1.2s2.3,0.5,3.2,1.2
			c0.3,0.2,0.6,0.4,0.9,0.7c-0.3,0.2-0.7,0.4-0.9,0.7C60.7,95.3,59.9,95.8,58.4,95.8z M73.5,95.8c-1.6,0-2.3-0.5-3.2-1.2
			c-0.3-0.2-0.6-0.4-0.9-0.7c0.3-0.2,0.7-0.4,0.9-0.7c0.9-0.7,1.6-1.2,3.2-1.2c1.6,0,2.3,0.5,3.2,1.2c0.3,0.2,0.6,0.4,0.9,0.7
			c-0.3,0.2-0.7,0.4-0.9,0.7C75.8,95.3,75.1,95.8,73.5,95.8z M88.6,95.8c-1.6,0-2.3-0.5-3.2-1.2c-0.3-0.2-0.6-0.4-0.9-0.7
			c0.3-0.2,0.7-0.4,0.9-0.7c0.9-0.7,1.6-1.2,3.2-1.2c1.6,0,2.3,0.5,3.2,1.2c0.3,0.2,0.6,0.4,0.9,0.7c-0.3,0.2-0.7,0.4-0.9,0.7
			C90.9,95.3,90.2,95.8,88.6,95.8z"/>
	</g>
</g>
<g id="Layer_2">
	<g>
		<defs>
			<path id="SVGID_3_" d="M35.6,55.2c0.5,0,0.9-0.4,0.9-0.9l0,0c0,0,0,0,0,0c0-0.5-0.4-0.9-0.9-0.9c-1.6,0-2.3-0.5-3.2-1.2
				c-1-0.8-2.1-1.6-4.3-1.6c-2.2,0-3.3,0.9-4.3,1.6c-0.9,0.7-1.6,1.2-3.2,1.2c-1.6,0-2.3-0.5-3.2-1.2c-1-0.8-2.1-1.6-4.3-1.6
				c-2.2,0-3.3,0.9-4.3,1.6c-0.9,0.7-1.6,1.2-3.2,1.2S3,52.7,2.1,52c-1-0.8-2.1-1.6-4.3-1.6c-2.2,0-3.3,0.9-4.3,1.6
				c-0.9,0.7-1.6,1.2-3.2,1.2s-2.3-0.5-3.2-1.2c-1-0.8-2.1-1.6-4.3-1.6c-2.2,0-3.3,0.9-4.3,1.6c-0.9,0.7-1.6,1.2-3.2,1.2
				c-0.5,0-0.9,0.4-0.9,0.9c0,0,0,0,0,0l0,0c0,0.5,0.4,0.9,0.9,0.9c1.6,0,2.3,0.5,3.2,1.2c0.3,0.2,0.6,0.4,0.9,0.7
				c-0.3,0.2-0.7,0.4-0.9,0.7c-0.9,0.7-1.6,1.2-3.2,1.2c-0.5,0-0.9,0.4-0.9,0.9c0,0,0,0,0,0l0,0c0,0.5,0.4,0.9,0.9,0.9
				c1.6,0,2.3,0.5,3.2,1.2c0.3,0.2,0.6,0.4,0.9,0.7c-0.3,0.2-0.7,0.4-0.9,0.7c-0.9,0.7-1.6,1.2-3.2,1.2c-0.5,0-0.9,0.4-0.9,0.9
				c0,0,0,0,0,0l0,0c0,0.5,0.4,0.9,0.9,0.9c1.6,0,2.3,0.5,3.2,1.2c0.3,0.2,0.6,0.4,0.9,0.7c-0.3,0.2-0.7,0.4-0.9,0.7
				c-0.9,0.7-1.6,1.2-3.2,1.2c-0.5,0-0.9,0.4-0.9,0.9l0,0l0,0c0,0.5,0.4,0.9,0.9,0.9c1.6,0,2.3,0.5,3.2,1.2c0.3,0.2,0.6,0.4,0.9,0.7
				c-0.3,0.2-0.7,0.4-0.9,0.7c-0.9,0.7-1.6,1.2-3.2,1.2c-0.5,0-0.9,0.4-0.9,0.9l0,0l0,0c0,0.5,0.4,0.9,0.9,0.9
				c1.6,0,2.3,0.5,3.2,1.2c0.3,0.2,0.6,0.4,0.9,0.7c-0.3,0.2-0.7,0.4-0.9,0.7c-0.9,0.7-1.6,1.2-3.2,1.2c-0.5,0-0.9,0.4-0.9,0.9l0,0
				l0,0c0,0.5,0.4,0.9,0.9,0.9c1.6,0,2.3,0.5,3.2,1.2c0.3,0.2,0.6,0.4,0.9,0.7c-0.3,0.2-0.7,0.4-0.9,0.7c-0.9,0.7-1.6,1.2-3.2,1.2
				c-0.5,0-0.9,0.4-0.9,0.9c0,0,0,0,0,0l0,0c0,0.5,0.4,0.9,0.9,0.9c1.6,0,2.3,0.5,3.2,1.2c0.3,0.2,0.6,0.4,0.9,0.7
				c-0.3,0.2-0.7,0.4-0.9,0.7c-0.9,0.7-1.6,1.2-3.2,1.2c-0.5,0-0.9,0.4-0.9,0.9l0,0l0,0c0,0.5,0.4,0.9,0.9,0.9
				c1.6,0,2.3,0.5,3.2,1.2c1,0.8,2.1,1.6,4.3,1.6s3.3-0.9,4.3-1.6c0.9-0.7,1.6-1.2,3.2-1.2s2.3,0.5,3.2,1.2c1,0.8,2.1,1.6,4.3,1.6
				c2.2,0,3.3-0.9,4.3-1.6c0.9-0.7,1.6-1.2,3.2-1.2s2.3,0.5,3.2,1.2c1,0.8,2.1,1.6,4.3,1.6s3.3-0.9,4.3-1.6c0.9-0.7,1.6-1.2,3.2-1.2
				s2.3,0.5,3.2,1.2c1,0.8,2.1,1.6,4.3,1.6c2.2,0,3.3-0.9,4.3-1.6c0.9-0.7,1.6-1.2,3.2-1.2c0.5,0,0.9-0.4,0.9-0.9l0,0l0,0
				c0-0.5-0.4-0.9-0.9-0.9c-1.6,0-2.3-0.5-3.2-1.2c-0.3-0.2-0.6-0.4-0.9-0.7c0.3-0.2,0.7-0.4,0.9-0.7c0.9-0.7,1.6-1.2,3.2-1.2
				c0.5,0,0.9-0.4,0.9-0.9l0,0c0,0,0,0,0,0c0-0.5-0.4-0.9-0.9-0.9c-1.6,0-2.3-0.5-3.2-1.2c-0.3-0.2-0.6-0.4-0.9-0.7
				c0.3-0.2,0.7-0.4,0.9-0.7c0.9-0.7,1.6-1.2,3.2-1.2c0.5,0,0.9-0.4,0.9-0.9l0,0l0,0c0-0.5-0.4-0.9-0.9-0.9c-1.6,0-2.3-0.5-3.2-1.2
				c-0.3-0.2-0.6-0.4-0.9-0.7c0.3-0.2,0.7-0.4,0.9-0.7c0.9-0.7,1.6-1.2,3.2-1.2c0.5,0,0.9-0.4,0.9-0.9l0,0l0,0
				c0-0.5-0.4-0.9-0.9-0.9c-1.6,0-2.3-0.5-3.2-1.2c-0.3-0.2-0.6-0.4-0.9-0.7c0.3-0.2,0.7-0.4,0.9-0.7c0.9-0.7,1.6-1.2,3.2-1.2
				c0.5,0,0.9-0.4,0.9-0.9l0,0l0,0c0-0.5-0.4-0.9-0.9-0.9c-1.6,0-2.3-0.5-3.2-1.2c-0.3-0.2-0.6-0.4-0.9-0.7c0.3-0.2,0.7-0.4,0.9-0.7
				c0.9-0.7,1.6-1.2,3.2-1.2c0.5,0,0.9-0.4,0.9-0.9l0,0c0,0,0,0,0,0c0-0.5-0.4-0.9-0.9-0.9c-1.6,0-2.3-0.5-3.2-1.2
				c-0.3-0.2-0.6-0.4-0.9-0.7c0.3-0.2,0.7-0.4,0.9-0.7c0.9-0.7,1.6-1.2,3.2-1.2c0.5,0,0.9-0.4,0.9-0.9l0,0c0,0,0,0,0,0
				c0-0.5-0.4-0.9-0.9-0.9c-1.6,0-2.3-0.5-3.2-1.2c-0.3-0.2-0.6-0.4-0.9-0.7c0.3-0.2,0.7-0.4,0.9-0.7C33.3,55.7,34,55.2,35.6,55.2z
				 M28,52.3c1.6,0,2.3,0.5,3.2,1.2c0.3,0.2,0.6,0.4,0.9,0.7c-0.3,0.2-0.7,0.4-0.9,0.7c-0.9,0.7-1.6,1.2-3.2,1.2
				c-1.6,0-2.3-0.5-3.2-1.2c-0.3-0.2-0.6-0.4-0.9-0.7c0.3-0.2,0.7-0.4,0.9-0.7C25.7,52.9,26.4,52.3,28,52.3z M20.4,93
				c-1.6,0-2.3-0.5-3.2-1.2c-0.3-0.2-0.6-0.4-0.9-0.7c0.3-0.2,0.7-0.4,0.9-0.7c0.9-0.7,1.6-1.2,3.2-1.2s2.3,0.5,3.2,1.2
				c0.3,0.2,0.6,0.4,0.9,0.7c-0.3,0.2-0.7,0.4-0.9,0.7C22.7,92.4,22,93,20.4,93z M5.3,93c-1.6,0-2.3-0.5-3.2-1.2
				c-0.3-0.2-0.6-0.4-0.9-0.7c0.3-0.2,0.7-0.4,0.9-0.7c0.9-0.7,1.6-1.2,3.2-1.2s2.3,0.5,3.2,1.2c0.3,0.2,0.6,0.4,0.9,0.7
				c-0.3,0.2-0.7,0.4-0.9,0.7C7.6,92.4,6.9,93,5.3,93z M-9.8,93c-1.6,0-2.3-0.5-3.2-1.2c-0.3-0.2-0.6-0.4-0.9-0.7
				c0.3-0.2,0.7-0.4,0.9-0.7c0.9-0.7,1.6-1.2,3.2-1.2s2.3,0.5,3.2,1.2c0.3,0.2,0.6,0.4,0.9,0.7c-0.3,0.2-0.7,0.4-0.9,0.7
				C-7.5,92.4-8.2,93-9.8,93z M-9.8,55.2c1.6,0,2.3,0.5,3.2,1.2c0.3,0.2,0.6,0.4,0.9,0.7c-0.3,0.2-0.7,0.4-0.9,0.7
				c-0.9,0.7-1.6,1.2-3.2,1.2s-2.3-0.5-3.2-1.2c-0.3-0.2-0.6-0.4-0.9-0.7c0.3-0.2,0.7-0.4,0.9-0.7C-12.1,55.7-11.4,55.2-9.8,55.2z
				 M5.3,55.2c1.6,0,2.3,0.5,3.2,1.2c0.3,0.2,0.6,0.4,0.9,0.7c-0.3,0.2-0.7,0.4-0.9,0.7c-0.9,0.7-1.6,1.2-3.2,1.2S3,58.4,2.1,57.7
				c-0.3-0.2-0.6-0.4-0.9-0.7c0.3-0.2,0.7-0.4,0.9-0.7C3,55.7,3.7,55.2,5.3,55.2z M12.9,90.1c-1.6,0-2.3-0.5-3.2-1.2
				c-0.3-0.2-0.6-0.4-0.9-0.7c0.3-0.2,0.7-0.4,0.9-0.7c0.9-0.7,1.6-1.2,3.2-1.2c1.6,0,2.3,0.5,3.2,1.2c0.3,0.2,0.6,0.4,0.9,0.7
				c-0.3,0.2-0.7,0.4-0.9,0.7C15.2,89.6,14.5,90.1,12.9,90.1z M-2.2,90.1c-1.6,0-2.3-0.5-3.2-1.2c-0.3-0.2-0.6-0.4-0.9-0.7
				c0.3-0.2,0.7-0.4,0.9-0.7c0.9-0.7,1.6-1.2,3.2-1.2s2.3,0.5,3.2,1.2c0.3,0.2,0.6,0.4,0.9,0.7c-0.3,0.2-0.7,0.4-0.9,0.7
				C0.1,89.6-0.7,90.1-2.2,90.1z M-2.2,58c1.6,0,2.3,0.5,3.2,1.2c0.3,0.2,0.6,0.4,0.9,0.7c-0.3,0.2-0.7,0.4-0.9,0.7
				c-0.9,0.7-1.6,1.2-3.2,1.2c-1.6,0-2.3-0.5-3.2-1.2c-0.3-0.2-0.6-0.4-0.9-0.7c0.3-0.2,0.7-0.4,0.9-0.7C-4.5,58.5-3.8,58-2.2,58z
				 M5.3,87.3c-1.6,0-2.3-0.5-3.2-1.2c-0.3-0.2-0.6-0.4-0.9-0.7c0.3-0.2,0.7-0.4,0.9-0.7c0.9-0.7,1.6-1.2,3.2-1.2s2.3,0.5,3.2,1.2
				c0.3,0.2,0.6,0.4,0.9,0.7c-0.3,0.2-0.7,0.4-0.9,0.7C7.6,86.8,6.9,87.3,5.3,87.3z M5.3,81.6c-1.6,0-2.3-0.5-3.2-1.2
				c-0.3-0.2-0.6-0.4-0.9-0.7c0.3-0.2,0.7-0.4,0.9-0.7c0.9-0.7,1.6-1.2,3.2-1.2s2.3,0.5,3.2,1.2c0.3,0.2,0.6,0.4,0.9,0.7
				c-0.3,0.2-0.7,0.4-0.9,0.7C7.6,81.1,6.9,81.6,5.3,81.6z M5.3,76c-1.6,0-2.3-0.5-3.2-1.2c-0.3-0.2-0.6-0.4-0.9-0.7
				c0.3-0.2,0.7-0.4,0.9-0.7c0.9-0.7,1.6-1.2,3.2-1.2s2.3,0.5,3.2,1.2c0.3,0.2,0.6,0.4,0.9,0.7c-0.3,0.2-0.7,0.4-0.9,0.7
				C7.6,75.4,6.9,76,5.3,76z M5.3,70.3c-1.6,0-2.3-0.5-3.2-1.2c-0.3-0.2-0.6-0.4-0.9-0.7c0.3-0.2,0.7-0.4,0.9-0.7
				c0.9-0.7,1.6-1.2,3.2-1.2s2.3,0.5,3.2,1.2c0.3,0.2,0.6,0.4,0.9,0.7c-0.3,0.2-0.7,0.4-0.9,0.7C7.6,69.7,6.9,70.3,5.3,70.3z
				 M5.3,64.6c-1.6,0-2.3-0.5-3.2-1.2c-0.3-0.2-0.6-0.4-0.9-0.7c0.3-0.2,0.7-0.4,0.9-0.7c0.9-0.7,1.6-1.2,3.2-1.2s2.3,0.5,3.2,1.2
				c0.3,0.2,0.6,0.4,0.9,0.7c-0.3,0.2-0.7,0.4-0.9,0.7C7.6,64.1,6.9,64.6,5.3,64.6z M-2.2,63.7c1.6,0,2.3,0.5,3.2,1.2
				c0.3,0.2,0.6,0.4,0.9,0.7C1.6,65.8,1.3,66,1,66.2c-0.9,0.7-1.6,1.2-3.2,1.2c-1.6,0-2.3-0.5-3.2-1.2c-0.3-0.2-0.6-0.4-0.9-0.7
				c0.3-0.2,0.7-0.4,0.9-0.7C-4.5,64.2-3.8,63.7-2.2,63.7z M-2.2,69.3c1.6,0,2.3,0.5,3.2,1.2c0.3,0.2,0.6,0.4,0.9,0.7
				c-0.3,0.2-0.7,0.4-0.9,0.7c-0.9,0.7-1.6,1.2-3.2,1.2c-1.6,0-2.3-0.5-3.2-1.2c-0.3-0.2-0.6-0.4-0.9-0.7c0.3-0.2,0.7-0.4,0.9-0.7
				C-4.5,69.9-3.8,69.3-2.2,69.3z M-2.2,75c1.6,0,2.3,0.5,3.2,1.2c0.3,0.2,0.6,0.4,0.9,0.7c-0.3,0.2-0.7,0.4-0.9,0.7
				c-0.9,0.7-1.6,1.2-3.2,1.2c-1.6,0-2.3-0.5-3.2-1.2c-0.3-0.2-0.6-0.4-0.9-0.7c0.3-0.2,0.7-0.4,0.9-0.7C-4.5,75.6-3.8,75-2.2,75z
				 M-2.2,80.7c1.6,0,2.3,0.5,3.2,1.2c0.3,0.2,0.6,0.4,0.9,0.7C1.6,82.8,1.3,83,1,83.2c-0.9,0.7-1.6,1.2-3.2,1.2
				c-1.6,0-2.3-0.5-3.2-1.2c-0.3-0.2-0.6-0.4-0.9-0.7c0.3-0.2,0.7-0.4,0.9-0.7C-4.5,81.2-3.8,80.7-2.2,80.7z M12.9,84.5
				c-1.6,0-2.3-0.5-3.2-1.2c-0.3-0.2-0.6-0.4-0.9-0.7c0.3-0.2,0.7-0.4,0.9-0.7c0.9-0.7,1.6-1.2,3.2-1.2c1.6,0,2.3,0.5,3.2,1.2
				c0.3,0.2,0.6,0.4,0.9,0.7c-0.3,0.2-0.7,0.4-0.9,0.7C15.2,83.9,14.5,84.5,12.9,84.5z M12.9,78.8c-1.6,0-2.3-0.5-3.2-1.2
				c-0.3-0.2-0.6-0.4-0.9-0.7c0.3-0.2,0.7-0.4,0.9-0.7c0.9-0.7,1.6-1.2,3.2-1.2c1.6,0,2.3,0.5,3.2,1.2c0.3,0.2,0.6,0.4,0.9,0.7
				c-0.3,0.2-0.7,0.4-0.9,0.7C15.2,78.3,14.5,78.8,12.9,78.8z M12.9,73.1c-1.6,0-2.3-0.5-3.2-1.2c-0.3-0.2-0.6-0.4-0.9-0.7
				c0.3-0.2,0.7-0.4,0.9-0.7c0.9-0.7,1.6-1.2,3.2-1.2c1.6,0,2.3,0.5,3.2,1.2c0.3,0.2,0.6,0.4,0.9,0.7c-0.3,0.2-0.7,0.4-0.9,0.7
				C15.2,72.6,14.5,73.1,12.9,73.1z M12.9,67.5c-1.6,0-2.3-0.5-3.2-1.2c-0.3-0.2-0.6-0.4-0.9-0.7c0.3-0.2,0.7-0.4,0.9-0.7
				c0.9-0.7,1.6-1.2,3.2-1.2c1.6,0,2.3,0.5,3.2,1.2c0.3,0.2,0.6,0.4,0.9,0.7c-0.3,0.2-0.7,0.4-0.9,0.7
				C15.2,66.9,14.5,67.5,12.9,67.5z M12.9,61.8c-1.6,0-2.3-0.5-3.2-1.2c-0.3-0.2-0.6-0.4-0.9-0.7c0.3-0.2,0.7-0.4,0.9-0.7
				c0.9-0.7,1.6-1.2,3.2-1.2c1.6,0,2.3,0.5,3.2,1.2c0.3,0.2,0.6,0.4,0.9,0.7c-0.3,0.2-0.7,0.4-0.9,0.7
				C15.2,61.2,14.5,61.8,12.9,61.8z M-14.2,59.2c0.3,0.2,0.6,0.4,0.9,0.7c-0.3,0.2-0.7,0.4-0.9,0.7c-0.9,0.7-1.6,1.2-3.2,1.2
				s-2.3-0.5-3.2-1.2c-0.3-0.2-0.6-0.4-0.9-0.7c0.3-0.2,0.7-0.4,0.9-0.7c0.9-0.7,1.6-1.2,3.2-1.2C-15.8,58-15.1,58.5-14.2,59.2z
				 M-13,62.1c0.9-0.7,1.6-1.2,3.2-1.2s2.3,0.5,3.2,1.2c0.3,0.2,0.6,0.4,0.9,0.7c-0.3,0.2-0.7,0.4-0.9,0.7c-0.9,0.7-1.6,1.2-3.2,1.2
				s-2.3-0.5-3.2-1.2c-0.3-0.2-0.6-0.4-0.9-0.7C-13.6,62.5-13.3,62.3-13,62.1z M-14.2,64.9c0.3,0.2,0.6,0.4,0.9,0.7
				c-0.3,0.2-0.7,0.4-0.9,0.7c-0.9,0.7-1.6,1.2-3.2,1.2s-2.3-0.5-3.2-1.2c-0.3-0.2-0.6-0.4-0.9-0.7c0.3-0.2,0.7-0.4,0.9-0.7
				c0.9-0.7,1.6-1.2,3.2-1.2C-15.8,63.7-15.1,64.2-14.2,64.9z M-13,67.7c0.9-0.7,1.6-1.2,3.2-1.2s2.3,0.5,3.2,1.2
				c0.3,0.2,0.6,0.4,0.9,0.7c-0.3,0.2-0.7,0.4-0.9,0.7c-0.9,0.7-1.6,1.2-3.2,1.2s-2.3-0.5-3.2-1.2c-0.3-0.2-0.6-0.4-0.9-0.7
				C-13.6,68.2-13.3,68-13,67.7z M-14.2,70.6c0.3,0.2,0.6,0.4,0.9,0.7c-0.3,0.2-0.7,0.4-0.9,0.7c-0.9,0.7-1.6,1.2-3.2,1.2
				s-2.3-0.5-3.2-1.2c-0.3-0.2-0.6-0.4-0.9-0.7c0.3-0.2,0.7-0.4,0.9-0.7c0.9-0.7,1.6-1.2,3.2-1.2C-15.8,69.3-15.1,69.9-14.2,70.6z
				 M-13,73.4c0.9-0.7,1.6-1.2,3.2-1.2s2.3,0.5,3.2,1.2c0.3,0.2,0.6,0.4,0.9,0.7c-0.3,0.2-0.7,0.4-0.9,0.7C-7.5,75.4-8.2,76-9.8,76
				s-2.3-0.5-3.2-1.2c-0.3-0.2-0.6-0.4-0.9-0.7C-13.6,73.9-13.3,73.6-13,73.4z M-14.2,76.2c0.3,0.2,0.6,0.4,0.9,0.7
				c-0.3,0.2-0.7,0.4-0.9,0.7c-0.9,0.7-1.6,1.2-3.2,1.2s-2.3-0.5-3.2-1.2c-0.3-0.2-0.6-0.4-0.9-0.7c0.3-0.2,0.7-0.4,0.9-0.7
				c0.9-0.7,1.6-1.2,3.2-1.2C-15.8,75-15.1,75.6-14.2,76.2z M-13,79.1c0.9-0.7,1.6-1.2,3.2-1.2s2.3,0.5,3.2,1.2
				c0.3,0.2,0.6,0.4,0.9,0.7C-6,80-6.3,80.2-6.6,80.4c-0.9,0.7-1.6,1.2-3.2,1.2s-2.3-0.5-3.2-1.2c-0.3-0.2-0.6-0.4-0.9-0.7
				C-13.6,79.5-13.3,79.3-13,79.1z M-14.2,81.9c0.3,0.2,0.6,0.4,0.9,0.7c-0.3,0.2-0.7,0.4-0.9,0.7c-0.9,0.7-1.6,1.2-3.2,1.2
				s-2.3-0.5-3.2-1.2c-0.3-0.2-0.6-0.4-0.9-0.7c0.3-0.2,0.7-0.4,0.9-0.7c0.9-0.7,1.6-1.2,3.2-1.2C-15.8,80.7-15.1,81.2-14.2,81.9z
				 M-13,84.8c0.9-0.7,1.6-1.2,3.2-1.2s2.3,0.5,3.2,1.2c0.3,0.2,0.6,0.4,0.9,0.7c-0.3,0.2-0.7,0.4-0.9,0.7c-0.9,0.7-1.6,1.2-3.2,1.2
				s-2.3-0.5-3.2-1.2c-0.3-0.2-0.6-0.4-0.9-0.7C-13.6,85.2-13.3,85-13,84.8z M-14.2,87.6c0.3,0.2,0.6,0.4,0.9,0.7
				c-0.3,0.2-0.7,0.4-0.9,0.7c-0.9,0.7-1.6,1.2-3.2,1.2s-2.3-0.5-3.2-1.2c-0.3-0.2-0.6-0.4-0.9-0.7c0.3-0.2,0.7-0.4,0.9-0.7
				c0.9-0.7,1.6-1.2,3.2-1.2C-15.8,86.4-15.1,86.9-14.2,87.6z M24.8,88.9c-0.3-0.2-0.6-0.4-0.9-0.7c0.3-0.2,0.7-0.4,0.9-0.7
				c0.9-0.7,1.6-1.2,3.2-1.2c1.6,0,2.3,0.5,3.2,1.2c0.3,0.2,0.6,0.4,0.9,0.7c-0.3,0.2-0.7,0.4-0.9,0.7c-0.9,0.7-1.6,1.2-3.2,1.2
				C26.4,90.1,25.7,89.6,24.8,88.9z M23.7,86.1c-0.9,0.7-1.6,1.2-3.2,1.2c-1.6,0-2.3-0.5-3.2-1.2c-0.3-0.2-0.6-0.4-0.9-0.7
				c0.3-0.2,0.7-0.4,0.9-0.7c0.9-0.7,1.6-1.2,3.2-1.2s2.3,0.5,3.2,1.2c0.3,0.2,0.6,0.4,0.9,0.7C24.3,85.6,24,85.9,23.7,86.1z
				 M24.8,83.2c-0.3-0.2-0.6-0.4-0.9-0.7c0.3-0.2,0.7-0.4,0.9-0.7c0.9-0.7,1.6-1.2,3.2-1.2c1.6,0,2.3,0.5,3.2,1.2
				c0.3,0.2,0.6,0.4,0.9,0.7c-0.3,0.2-0.7,0.4-0.9,0.7c-0.9,0.7-1.6,1.2-3.2,1.2C26.4,84.5,25.7,83.9,24.8,83.2z M23.7,80.4
				c-0.9,0.7-1.6,1.2-3.2,1.2c-1.6,0-2.3-0.5-3.2-1.2c-0.3-0.2-0.6-0.4-0.9-0.7c0.3-0.2,0.7-0.4,0.9-0.7c0.9-0.7,1.6-1.2,3.2-1.2
				s2.3,0.5,3.2,1.2c0.3,0.2,0.6,0.4,0.9,0.7C24.3,80,24,80.2,23.7,80.4z M24.8,77.6c-0.3-0.2-0.6-0.4-0.9-0.7
				c0.3-0.2,0.7-0.4,0.9-0.7c0.9-0.7,1.6-1.2,3.2-1.2c1.6,0,2.3,0.5,3.2,1.2c0.3,0.2,0.6,0.4,0.9,0.7c-0.3,0.2-0.7,0.4-0.9,0.7
				c-0.9,0.7-1.6,1.2-3.2,1.2C26.4,78.8,25.7,78.3,24.8,77.6z M23.7,74.7C22.7,75.4,22,76,20.4,76c-1.6,0-2.3-0.5-3.2-1.2
				c-0.3-0.2-0.6-0.4-0.9-0.7c0.3-0.2,0.7-0.4,0.9-0.7c0.9-0.7,1.6-1.2,3.2-1.2s2.3,0.5,3.2,1.2c0.3,0.2,0.6,0.4,0.9,0.7
				C24.3,74.3,24,74.5,23.7,74.7z M24.8,71.9c-0.3-0.2-0.6-0.4-0.9-0.7c0.3-0.2,0.7-0.4,0.9-0.7c0.9-0.7,1.6-1.2,3.2-1.2
				c1.6,0,2.3,0.5,3.2,1.2c0.3,0.2,0.6,0.4,0.9,0.7c-0.3,0.2-0.7,0.4-0.9,0.7c-0.9,0.7-1.6,1.2-3.2,1.2
				C26.4,73.1,25.7,72.6,24.8,71.9z M23.7,69.1c-0.9,0.7-1.6,1.2-3.2,1.2c-1.6,0-2.3-0.5-3.2-1.2c-0.3-0.2-0.6-0.4-0.9-0.7
				c0.3-0.2,0.7-0.4,0.9-0.7c0.9-0.7,1.6-1.2,3.2-1.2s2.3,0.5,3.2,1.2c0.3,0.2,0.6,0.4,0.9,0.7C24.3,68.6,24,68.8,23.7,69.1z
				 M24.8,66.2c-0.3-0.2-0.6-0.4-0.9-0.7c0.3-0.2,0.7-0.4,0.9-0.7c0.9-0.7,1.6-1.2,3.2-1.2c1.6,0,2.3,0.5,3.2,1.2
				c0.3,0.2,0.6,0.4,0.9,0.7c-0.3,0.2-0.7,0.4-0.9,0.7c-0.9,0.7-1.6,1.2-3.2,1.2C26.4,67.5,25.7,66.9,24.8,66.2z M23.7,63.4
				c-0.9,0.7-1.6,1.2-3.2,1.2c-1.6,0-2.3-0.5-3.2-1.2c-0.3-0.2-0.6-0.4-0.9-0.7c0.3-0.2,0.7-0.4,0.9-0.7c0.9-0.7,1.6-1.2,3.2-1.2
				s2.3,0.5,3.2,1.2c0.3,0.2,0.6,0.4,0.9,0.7C24.3,62.9,24,63.2,23.7,63.4z M24.8,60.6c-0.3-0.2-0.6-0.4-0.9-0.7
				c0.3-0.2,0.7-0.4,0.9-0.7c0.9-0.7,1.6-1.2,3.2-1.2c1.6,0,2.3,0.5,3.2,1.2c0.3,0.2,0.6,0.4,0.9,0.7c-0.3,0.2-0.7,0.4-0.9,0.7
				c-0.9,0.7-1.6,1.2-3.2,1.2C26.4,61.8,25.7,61.2,24.8,60.6z M23.7,57.7c-0.9,0.7-1.6,1.2-3.2,1.2c-1.6,0-2.3-0.5-3.2-1.2
				c-0.3-0.2-0.6-0.4-0.9-0.7c0.3-0.2,0.7-0.4,0.9-0.7c0.9-0.7,1.6-1.2,3.2-1.2s2.3,0.5,3.2,1.2c0.3,0.2,0.6,0.4,0.9,0.7
				C24.3,57.3,24,57.5,23.7,57.7z M12.9,52.3c1.6,0,2.3,0.5,3.2,1.2c0.3,0.2,0.6,0.4,0.9,0.7c-0.3,0.2-0.7,0.4-0.9,0.7
				c-0.9,0.7-1.6,1.2-3.2,1.2c-1.6,0-2.3-0.5-3.2-1.2c-0.3-0.2-0.6-0.4-0.9-0.7c0.3-0.2,0.7-0.4,0.9-0.7
				C10.6,52.9,11.3,52.3,12.9,52.3z M-2.2,52.3c1.6,0,2.3,0.5,3.2,1.2c0.3,0.2,0.6,0.4,0.9,0.7c-0.3,0.2-0.7,0.4-0.9,0.7
				c-0.9,0.7-1.6,1.2-3.2,1.2c-1.6,0-2.3-0.5-3.2-1.2c-0.3-0.2-0.6-0.4-0.9-0.7c0.3-0.2,0.7-0.4,0.9-0.7
				C-4.5,52.9-3.8,52.3-2.2,52.3z M-17.4,52.3c1.6,0,2.3,0.5,3.2,1.2c0.3,0.2,0.6,0.4,0.9,0.7c-0.3,0.2-0.7,0.4-0.9,0.7
				c-0.9,0.7-1.6,1.2-3.2,1.2s-2.3-0.5-3.2-1.2c-0.3-0.2-0.6-0.4-0.9-0.7c0.3-0.2,0.7-0.4,0.9-0.7C-19.7,52.9-18.9,52.3-17.4,52.3z
				 M-17.4,95.8c-1.6,0-2.3-0.5-3.2-1.2c-0.3-0.2-0.6-0.4-0.9-0.7c0.3-0.2,0.7-0.4,0.9-0.7c0.9-0.7,1.6-1.2,3.2-1.2s2.3,0.5,3.2,1.2
				c0.3,0.2,0.6,0.4,0.9,0.7c-0.3,0.2-0.7,0.4-0.9,0.7C-15.1,95.3-15.8,95.8-17.4,95.8z M-2.2,95.8c-1.6,0-2.3-0.5-3.2-1.2
				c-0.3-0.2-0.6-0.4-0.9-0.7c0.3-0.2,0.7-0.4,0.9-0.7c0.9-0.7,1.6-1.2,3.2-1.2s2.3,0.5,3.2,1.2c0.3,0.2,0.6,0.4,0.9,0.7
				c-0.3,0.2-0.7,0.4-0.9,0.7C0.1,95.3-0.7,95.8-2.2,95.8z M12.9,95.8c-1.6,0-2.3-0.5-3.2-1.2c-0.3-0.2-0.6-0.4-0.9-0.7
				c0.3-0.2,0.7-0.4,0.9-0.7c0.9-0.7,1.6-1.2,3.2-1.2c1.6,0,2.3,0.5,3.2,1.2c0.3,0.2,0.6,0.4,0.9,0.7c-0.3,0.2-0.7,0.4-0.9,0.7
				C15.2,95.3,14.5,95.8,12.9,95.8z M28,95.8c-1.6,0-2.3-0.5-3.2-1.2c-0.3-0.2-0.6-0.4-0.9-0.7c0.3-0.2,0.7-0.4,0.9-0.7
				c0.9-0.7,1.6-1.2,3.2-1.2c1.6,0,2.3,0.5,3.2,1.2c0.3,0.2,0.6,0.4,0.9,0.7c-0.3,0.2-0.7,0.4-0.9,0.7C30.3,95.3,29.6,95.8,28,95.8z
				"/>
		</defs>
		<clipPath id="SVGID_4_">
			<use xlink:href="#SVGID_3_"  overflow="visible"/>
		</clipPath>
		<path clip-path="url(#SVGID_4_)" d="M39.4,25.5c10.1-4.2,19.1-9.5,10.4-20v0c-9,3.1-16.6,11.1-23.9,17.3
			c1.3-5.3,4.9-11.9-1.2-13.3c-6,0.7-6.2,6.7-7.2,12.1C5.9,24.8,8.3,32.4,6,38c-1.9,5.8-2.1,10.8,5.6,12.6
			c-3.8,18.7,9.8,20.7,20.1,25.9c-4.4,2.9-17,7.4-8.7,9.9c-3.2,6.3,2,8.5,14.5,5.3c4.1,5.9,35.4,5.3,37.1-3.9
			c24.5-7,20.1-22.9,10.5-20.6c-4.5-24.8-15.9-37.8-40.9-27.9C34.8,38.9,32,34.4,30.9,29c1.6-0.7,3.4-1.4,5.1-2.1"/>
	</g>
</g>
<g id="Layer_3">
	<g>
		<defs>
			<path id="SVGID_5_" d="M35.3,9.6c0.5,0,0.9-0.4,0.9-0.9l0,0c0,0,0,0,0,0c0-0.5-0.4-0.9-0.9-0.9c-1.6,0-2.3-0.5-3.2-1.2
				c-1-0.8-2.1-1.6-4.3-1.6c-2.2,0-3.3,0.9-4.3,1.6c-0.9,0.7-1.6,1.2-3.2,1.2c-1.6,0-2.3-0.5-3.2-1.2c-1-0.8-2.1-1.6-4.3-1.6
				c-2.2,0-3.3,0.9-4.3,1.6C7.4,7.2,6.6,7.7,5.1,7.7S2.8,7.2,1.9,6.5c-1-0.8-2.1-1.6-4.3-1.6c-2.2,0-3.3,0.9-4.3,1.6
				c-0.9,0.7-1.6,1.2-3.2,1.2s-2.3-0.5-3.2-1.2c-1-0.8-2.1-1.6-4.3-1.6c-2.2,0-3.3,0.9-4.3,1.6c-0.9,0.7-1.6,1.2-3.2,1.2
				c-0.5,0-0.9,0.4-0.9,0.9c0,0,0,0,0,0l0,0c0,0.5,0.4,0.9,0.9,0.9c1.6,0,2.3,0.5,3.2,1.2c0.3,0.2,0.6,0.4,0.9,0.7
				c-0.3,0.2-0.7,0.4-0.9,0.7c-0.9,0.7-1.6,1.2-3.2,1.2c-0.5,0-0.9,0.4-0.9,0.9c0,0,0,0,0,0l0,0c0,0.5,0.4,0.9,0.9,0.9
				c1.6,0,2.3,0.5,3.2,1.2c0.3,0.2,0.6,0.4,0.9,0.7c-0.3,0.2-0.7,0.4-0.9,0.7c-0.9,0.7-1.6,1.2-3.2,1.2c-0.5,0-0.9,0.4-0.9,0.9
				c0,0,0,0,0,0l0,0c0,0.5,0.4,0.9,0.9,0.9c1.6,0,2.3,0.5,3.2,1.2c0.3,0.2,0.6,0.4,0.9,0.7c-0.3,0.2-0.7,0.4-0.9,0.7
				c-0.9,0.7-1.6,1.2-3.2,1.2c-0.5,0-0.9,0.4-0.9,0.9l0,0l0,0c0,0.5,0.4,0.9,0.9,0.9c1.6,0,2.3,0.5,3.2,1.2c0.3,0.2,0.6,0.4,0.9,0.7
				c-0.3,0.2-0.7,0.4-0.9,0.7c-0.9,0.7-1.6,1.2-3.2,1.2c-0.5,0-0.9,0.4-0.9,0.9l0,0l0,0c0,0.5,0.4,0.9,0.9,0.9
				c1.6,0,2.3,0.5,3.2,1.2c0.3,0.2,0.6,0.4,0.9,0.7c-0.3,0.2-0.7,0.4-0.9,0.7c-0.9,0.7-1.6,1.2-3.2,1.2c-0.5,0-0.9,0.4-0.9,0.9l0,0
				l0,0c0,0.5,0.4,0.9,0.9,0.9c1.6,0,2.3,0.5,3.2,1.2c0.3,0.2,0.6,0.4,0.9,0.7c-0.3,0.2-0.7,0.4-0.9,0.7c-0.9,0.7-1.6,1.2-3.2,1.2
				c-0.5,0-0.9,0.4-0.9,0.9c0,0,0,0,0,0l0,0c0,0.5,0.4,0.9,0.9,0.9c1.6,0,2.3,0.5,3.2,1.2c0.3,0.2,0.6,0.4,0.9,0.7
				c-0.3,0.2-0.7,0.4-0.9,0.7c-0.9,0.7-1.6,1.2-3.2,1.2c-0.5,0-0.9,0.4-0.9,0.9l0,0l0,0c0,0.5,0.4,0.9,0.9,0.9
				c1.6,0,2.3,0.5,3.2,1.2c1,0.8,2.1,1.6,4.3,1.6s3.3-0.9,4.3-1.6c0.9-0.7,1.6-1.2,3.2-1.2c1.6,0,2.3,0.5,3.2,1.2
				c1,0.8,2.1,1.6,4.3,1.6c2.2,0,3.3-0.9,4.3-1.6c0.9-0.7,1.6-1.2,3.2-1.2s2.3,0.5,3.2,1.2c1,0.8,2.1,1.6,4.3,1.6s3.3-0.9,4.3-1.6
				c0.9-0.7,1.6-1.2,3.2-1.2s2.3,0.5,3.2,1.2c1,0.8,2.1,1.6,4.3,1.6c2.2,0,3.3-0.9,4.3-1.6c0.9-0.7,1.6-1.2,3.2-1.2
				c0.5,0,0.9-0.4,0.9-0.9l0,0l0,0c0-0.5-0.4-0.9-0.9-0.9c-1.6,0-2.3-0.5-3.2-1.2c-0.3-0.2-0.6-0.4-0.9-0.7c0.3-0.2,0.7-0.4,0.9-0.7
				c0.9-0.7,1.6-1.2,3.2-1.2c0.5,0,0.9-0.4,0.9-0.9l0,0c0,0,0,0,0,0c0-0.5-0.4-0.9-0.9-0.9c-1.6,0-2.3-0.5-3.2-1.2
				c-0.3-0.2-0.6-0.4-0.9-0.7c0.3-0.2,0.7-0.4,0.9-0.7c0.9-0.7,1.6-1.2,3.2-1.2c0.5,0,0.9-0.4,0.9-0.9l0,0l0,0
				c0-0.5-0.4-0.9-0.9-0.9c-1.6,0-2.3-0.5-3.2-1.2c-0.3-0.2-0.6-0.4-0.9-0.7c0.3-0.2,0.7-0.4,0.9-0.7c0.9-0.7,1.6-1.2,3.2-1.2
				c0.5,0,0.9-0.4,0.9-0.9l0,0l0,0c0-0.5-0.4-0.9-0.9-0.9c-1.6,0-2.3-0.5-3.2-1.2c-0.3-0.2-0.6-0.4-0.9-0.7c0.3-0.2,0.7-0.4,0.9-0.7
				c0.9-0.7,1.6-1.2,3.2-1.2c0.5,0,0.9-0.4,0.9-0.9l0,0l0,0c0-0.5-0.4-0.9-0.9-0.9c-1.6,0-2.3-0.5-3.2-1.2c-0.3-0.2-0.6-0.4-0.9-0.7
				c0.3-0.2,0.7-0.4,0.9-0.7c0.9-0.7,1.6-1.2,3.2-1.2c0.5,0,0.9-0.4,0.9-0.9l0,0c0,0,0,0,0,0c0-0.5-0.4-0.9-0.9-0.9
				c-1.6,0-2.3-0.5-3.2-1.2c-0.3-0.2-0.6-0.4-0.9-0.7c0.3-0.2,0.7-0.4,0.9-0.7c0.9-0.7,1.6-1.2,3.2-1.2c0.5,0,0.9-0.4,0.9-0.9l0,0
				c0,0,0,0,0,0c0-0.5-0.4-0.9-0.9-0.9c-1.6,0-2.3-0.5-3.2-1.2c-0.3-0.2-0.6-0.4-0.9-0.7c0.3-0.2,0.7-0.4,0.9-0.7
				C33,10.2,33.7,9.6,35.3,9.6z M27.8,6.8c1.6,0,2.3,0.5,3.2,1.2c0.3,0.2,0.6,0.4,0.9,0.7c-0.3,0.2-0.7,0.4-0.9,0.7
				c-0.9,0.7-1.6,1.2-3.2,1.2c-1.6,0-2.3-0.5-3.2-1.2c-0.3-0.2-0.6-0.4-0.9-0.7c0.3-0.2,0.7-0.4,0.9-0.7C25.5,7.3,26.2,6.8,27.8,6.8
				z M20.2,47.4c-1.6,0-2.3-0.5-3.2-1.2c-0.3-0.2-0.6-0.4-0.9-0.7c0.3-0.2,0.7-0.4,0.9-0.7c0.9-0.7,1.6-1.2,3.2-1.2s2.3,0.5,3.2,1.2
				c0.3,0.2,0.6,0.4,0.9,0.7c-0.3,0.2-0.7,0.4-0.9,0.7C22.5,46.9,21.8,47.4,20.2,47.4z M5.1,47.4c-1.6,0-2.3-0.5-3.2-1.2
				c-0.3-0.2-0.6-0.4-0.9-0.7c0.3-0.2,0.7-0.4,0.9-0.7c0.9-0.7,1.6-1.2,3.2-1.2s2.3,0.5,3.2,1.2c0.3,0.2,0.6,0.4,0.9,0.7
				c-0.3,0.2-0.7,0.4-0.9,0.7C7.4,46.9,6.6,47.4,5.1,47.4z M-10.1,47.4c-1.6,0-2.3-0.5-3.2-1.2c-0.3-0.2-0.6-0.4-0.9-0.7
				c0.3-0.2,0.7-0.4,0.9-0.7c0.9-0.7,1.6-1.2,3.2-1.2s2.3,0.5,3.2,1.2c0.3,0.2,0.6,0.4,0.9,0.7c-0.3,0.2-0.7,0.4-0.9,0.7
				C-7.8,46.9-8.5,47.4-10.1,47.4z M-10.1,9.6c1.6,0,2.3,0.5,3.2,1.2c0.3,0.2,0.6,0.4,0.9,0.7c-0.3,0.2-0.7,0.4-0.9,0.7
				c-0.9,0.7-1.6,1.2-3.2,1.2s-2.3-0.5-3.2-1.2c-0.3-0.2-0.6-0.4-0.9-0.7c0.3-0.2,0.7-0.4,0.9-0.7C-12.4,10.2-11.6,9.6-10.1,9.6z
				 M5.1,9.6c1.6,0,2.3,0.5,3.2,1.2c0.3,0.2,0.6,0.4,0.9,0.7c-0.3,0.2-0.7,0.4-0.9,0.7c-0.9,0.7-1.6,1.2-3.2,1.2s-2.3-0.5-3.2-1.2
				c-0.3-0.2-0.6-0.4-0.9-0.7c0.3-0.2,0.7-0.4,0.9-0.7C2.8,10.2,3.5,9.6,5.1,9.6z M12.6,44.6c-1.6,0-2.3-0.5-3.2-1.2
				c-0.3-0.2-0.6-0.4-0.9-0.7c0.3-0.2,0.7-0.4,0.9-0.7c0.9-0.7,1.6-1.2,3.2-1.2c1.6,0,2.3,0.5,3.2,1.2c0.3,0.2,0.6,0.4,0.9,0.7
				c-0.3,0.2-0.7,0.4-0.9,0.7C14.9,44,14.2,44.6,12.6,44.6z M-2.5,44.6c-1.6,0-2.3-0.5-3.2-1.2c-0.3-0.2-0.6-0.4-0.9-0.7
				c0.3-0.2,0.7-0.4,0.9-0.7c0.9-0.7,1.6-1.2,3.2-1.2s2.3,0.5,3.2,1.2c0.3,0.2,0.6,0.4,0.9,0.7c-0.3,0.2-0.7,0.4-0.9,0.7
				C-0.2,44-0.9,44.6-2.5,44.6z M-2.5,12.4c1.6,0,2.3,0.5,3.2,1.2c0.3,0.2,0.6,0.4,0.9,0.7C1.3,14.6,1,14.8,0.7,15
				c-0.9,0.7-1.6,1.2-3.2,1.2c-1.6,0-2.3-0.5-3.2-1.2c-0.3-0.2-0.6-0.4-0.9-0.7c0.3-0.2,0.7-0.4,0.9-0.7C-4.8,13-4.1,12.4-2.5,12.4z
				 M5.1,41.8c-1.6,0-2.3-0.5-3.2-1.2c-0.3-0.2-0.6-0.4-0.9-0.7c0.3-0.2,0.7-0.4,0.9-0.7C2.8,38.5,3.5,38,5.1,38s2.3,0.5,3.2,1.2
				c0.3,0.2,0.6,0.4,0.9,0.7c-0.3,0.2-0.7,0.4-0.9,0.7C7.4,41.2,6.6,41.8,5.1,41.8z M5.1,36.1c-1.6,0-2.3-0.5-3.2-1.2
				c-0.3-0.2-0.6-0.4-0.9-0.7c0.3-0.2,0.7-0.4,0.9-0.7c0.9-0.7,1.6-1.2,3.2-1.2s2.3,0.5,3.2,1.2c0.3,0.2,0.6,0.4,0.9,0.7
				c-0.3,0.2-0.7,0.4-0.9,0.7C7.4,35.5,6.6,36.1,5.1,36.1z M5.1,30.4c-1.6,0-2.3-0.5-3.2-1.2c-0.3-0.2-0.6-0.4-0.9-0.7
				c0.3-0.2,0.7-0.4,0.9-0.7c0.9-0.7,1.6-1.2,3.2-1.2s2.3,0.5,3.2,1.2c0.3,0.2,0.6,0.4,0.9,0.7c-0.3,0.2-0.7,0.4-0.9,0.7
				C7.4,29.9,6.6,30.4,5.1,30.4z M5.1,24.7c-1.6,0-2.3-0.5-3.2-1.2c-0.3-0.2-0.6-0.4-0.9-0.7c0.3-0.2,0.7-0.4,0.9-0.7
				C2.8,21.5,3.5,21,5.1,21s2.3,0.5,3.2,1.2c0.3,0.2,0.6,0.4,0.9,0.7c-0.3,0.2-0.7,0.4-0.9,0.7C7.4,24.2,6.6,24.7,5.1,24.7z
				 M5.1,19.1c-1.6,0-2.3-0.5-3.2-1.2c-0.3-0.2-0.6-0.4-0.9-0.7c0.3-0.2,0.7-0.4,0.9-0.7c0.9-0.7,1.6-1.2,3.2-1.2s2.3,0.5,3.2,1.2
				c0.3,0.2,0.6,0.4,0.9,0.7c-0.3,0.2-0.7,0.4-0.9,0.7C7.4,18.5,6.6,19.1,5.1,19.1z M-2.5,18.1c1.6,0,2.3,0.5,3.2,1.2
				C1,19.6,1.3,19.8,1.7,20c-0.3,0.2-0.7,0.4-0.9,0.7c-0.9,0.7-1.6,1.2-3.2,1.2c-1.6,0-2.3-0.5-3.2-1.2C-6,20.5-6.3,20.2-6.7,20
				c0.3-0.2,0.7-0.4,0.9-0.7C-4.8,18.7-4.1,18.1-2.5,18.1z M-2.5,23.8c1.6,0,2.3,0.5,3.2,1.2c0.3,0.2,0.6,0.4,0.9,0.7
				c-0.3,0.2-0.7,0.4-0.9,0.7c-0.9,0.7-1.6,1.2-3.2,1.2c-1.6,0-2.3-0.5-3.2-1.2c-0.3-0.2-0.6-0.4-0.9-0.7c0.3-0.2,0.7-0.4,0.9-0.7
				C-4.8,24.3-4.1,23.8-2.5,23.8z M-2.5,29.5c1.6,0,2.3,0.5,3.2,1.2c0.3,0.2,0.6,0.4,0.9,0.7C1.3,31.6,1,31.8,0.7,32
				c-0.9,0.7-1.6,1.2-3.2,1.2c-1.6,0-2.3-0.5-3.2-1.2c-0.3-0.2-0.6-0.4-0.9-0.7c0.3-0.2,0.7-0.4,0.9-0.7C-4.8,30-4.1,29.5-2.5,29.5z
				 M-2.5,35.1c1.6,0,2.3,0.5,3.2,1.2C1,36.6,1.3,36.8,1.7,37c-0.3,0.2-0.7,0.4-0.9,0.7c-0.9,0.7-1.6,1.2-3.2,1.2
				c-1.6,0-2.3-0.5-3.2-1.2C-6,37.5-6.3,37.2-6.7,37c0.3-0.2,0.7-0.4,0.9-0.7C-4.8,35.7-4.1,35.1-2.5,35.1z M12.6,38.9
				c-1.6,0-2.3-0.5-3.2-1.2c-0.3-0.2-0.6-0.4-0.9-0.7c0.3-0.2,0.7-0.4,0.9-0.7c0.9-0.7,1.6-1.2,3.2-1.2c1.6,0,2.3,0.5,3.2,1.2
				c0.3,0.2,0.6,0.4,0.9,0.7c-0.3,0.2-0.7,0.4-0.9,0.7C14.9,38.4,14.2,38.9,12.6,38.9z M12.6,33.2c-1.6,0-2.3-0.5-3.2-1.2
				c-0.3-0.2-0.6-0.4-0.9-0.7c0.3-0.2,0.7-0.4,0.9-0.7c0.9-0.7,1.6-1.2,3.2-1.2c1.6,0,2.3,0.5,3.2,1.2c0.3,0.2,0.6,0.4,0.9,0.7
				c-0.3,0.2-0.7,0.4-0.9,0.7C14.9,32.7,14.2,33.2,12.6,33.2z M12.6,27.6c-1.6,0-2.3-0.5-3.2-1.2c-0.3-0.2-0.6-0.4-0.9-0.7
				c0.3-0.2,0.7-0.4,0.9-0.7c0.9-0.7,1.6-1.2,3.2-1.2c1.6,0,2.3,0.5,3.2,1.2c0.3,0.2,0.6,0.4,0.9,0.7c-0.3,0.2-0.7,0.4-0.9,0.7
				C14.9,27,14.2,27.6,12.6,27.6z M12.6,21.9c-1.6,0-2.3-0.5-3.2-1.2c-0.3-0.2-0.6-0.4-0.9-0.7c0.3-0.2,0.7-0.4,0.9-0.7
				c0.9-0.7,1.6-1.2,3.2-1.2c1.6,0,2.3,0.5,3.2,1.2c0.3,0.2,0.6,0.4,0.9,0.7c-0.3,0.2-0.7,0.4-0.9,0.7
				C14.9,21.4,14.2,21.9,12.6,21.9z M12.6,16.2c-1.6,0-2.3-0.5-3.2-1.2c-0.3-0.2-0.6-0.4-0.9-0.7c0.3-0.2,0.7-0.4,0.9-0.7
				c0.9-0.7,1.6-1.2,3.2-1.2c1.6,0,2.3,0.5,3.2,1.2c0.3,0.2,0.6,0.4,0.9,0.7c-0.3,0.2-0.7,0.4-0.9,0.7
				C14.9,15.7,14.2,16.2,12.6,16.2z M-14.4,13.7c0.3,0.2,0.6,0.4,0.9,0.7c-0.3,0.2-0.7,0.4-0.9,0.7c-0.9,0.7-1.6,1.2-3.2,1.2
				s-2.3-0.5-3.2-1.2c-0.3-0.2-0.6-0.4-0.9-0.7c0.3-0.2,0.7-0.4,0.9-0.7c0.9-0.7,1.6-1.2,3.2-1.2C-16,12.4-15.3,13-14.4,13.7z
				 M-13.3,16.5c0.9-0.7,1.6-1.2,3.2-1.2c1.6,0,2.3,0.5,3.2,1.2c0.3,0.2,0.6,0.4,0.9,0.7c-0.3,0.2-0.7,0.4-0.9,0.7
				c-0.9,0.7-1.6,1.2-3.2,1.2s-2.3-0.5-3.2-1.2c-0.3-0.2-0.6-0.4-0.9-0.7C-13.9,17-13.6,16.7-13.3,16.5z M-14.4,19.3
				c0.3,0.2,0.6,0.4,0.9,0.7c-0.3,0.2-0.7,0.4-0.9,0.7c-0.9,0.7-1.6,1.2-3.2,1.2s-2.3-0.5-3.2-1.2c-0.3-0.2-0.6-0.4-0.9-0.7
				c0.3-0.2,0.7-0.4,0.9-0.7c0.9-0.7,1.6-1.2,3.2-1.2C-16,18.1-15.3,18.7-14.4,19.3z M-13.3,22.2c0.9-0.7,1.6-1.2,3.2-1.2
				c1.6,0,2.3,0.5,3.2,1.2c0.3,0.2,0.6,0.4,0.9,0.7c-0.3,0.2-0.7,0.4-0.9,0.7c-0.9,0.7-1.6,1.2-3.2,1.2s-2.3-0.5-3.2-1.2
				c-0.3-0.2-0.6-0.4-0.9-0.7C-13.9,22.6-13.6,22.4-13.3,22.2z M-14.4,25c0.3,0.2,0.6,0.4,0.9,0.7c-0.3,0.2-0.7,0.4-0.9,0.7
				c-0.9,0.7-1.6,1.2-3.2,1.2s-2.3-0.5-3.2-1.2c-0.3-0.2-0.6-0.4-0.9-0.7c0.3-0.2,0.7-0.4,0.9-0.7c0.9-0.7,1.6-1.2,3.2-1.2
				C-16,23.8-15.3,24.3-14.4,25z M-13.3,27.9c0.9-0.7,1.6-1.2,3.2-1.2c1.6,0,2.3,0.5,3.2,1.2c0.3,0.2,0.6,0.4,0.9,0.7
				c-0.3,0.2-0.7,0.4-0.9,0.7c-0.9,0.7-1.6,1.2-3.2,1.2s-2.3-0.5-3.2-1.2c-0.3-0.2-0.6-0.4-0.9-0.7C-13.9,28.3-13.6,28.1-13.3,27.9z
				 M-14.4,30.7c0.3,0.2,0.6,0.4,0.9,0.7c-0.3,0.2-0.7,0.4-0.9,0.7c-0.9,0.7-1.6,1.2-3.2,1.2s-2.3-0.5-3.2-1.2
				c-0.3-0.2-0.6-0.4-0.9-0.7c0.3-0.2,0.7-0.4,0.9-0.7c0.9-0.7,1.6-1.2,3.2-1.2C-16,29.5-15.3,30-14.4,30.7z M-13.3,33.5
				c0.9-0.7,1.6-1.2,3.2-1.2c1.6,0,2.3,0.5,3.2,1.2c0.3,0.2,0.6,0.4,0.9,0.7c-0.3,0.2-0.7,0.4-0.9,0.7c-0.9,0.7-1.6,1.2-3.2,1.2
				s-2.3-0.5-3.2-1.2c-0.3-0.2-0.6-0.4-0.9-0.7C-13.9,34-13.6,33.8-13.3,33.5z M-14.4,36.4c0.3,0.2,0.6,0.4,0.9,0.7
				c-0.3,0.2-0.7,0.4-0.9,0.7c-0.9,0.7-1.6,1.2-3.2,1.2s-2.3-0.5-3.2-1.2c-0.3-0.2-0.6-0.4-0.9-0.7c0.3-0.2,0.7-0.4,0.9-0.7
				c0.9-0.7,1.6-1.2,3.2-1.2C-16,35.1-15.3,35.7-14.4,36.4z M-13.3,39.2c0.9-0.7,1.6-1.2,3.2-1.2c1.6,0,2.3,0.5,3.2,1.2
				c0.3,0.2,0.6,0.4,0.9,0.7c-0.3,0.2-0.7,0.4-0.9,0.7c-0.9,0.7-1.6,1.2-3.2,1.2s-2.3-0.5-3.2-1.2c-0.3-0.2-0.6-0.4-0.9-0.7
				C-13.9,39.7-13.6,39.4-13.3,39.2z M-14.4,42c0.3,0.2,0.6,0.4,0.9,0.7c-0.3,0.2-0.7,0.4-0.9,0.7c-0.9,0.7-1.6,1.2-3.2,1.2
				s-2.3-0.5-3.2-1.2c-0.3-0.2-0.6-0.4-0.9-0.7c0.3-0.2,0.7-0.4,0.9-0.7c0.9-0.7,1.6-1.2,3.2-1.2C-16,40.8-15.3,41.4-14.4,42z
				 M24.5,43.4c-0.3-0.2-0.6-0.4-0.9-0.7c0.3-0.2,0.7-0.4,0.9-0.7c0.9-0.7,1.6-1.2,3.2-1.2c1.6,0,2.3,0.5,3.2,1.2
				c0.3,0.2,0.6,0.4,0.9,0.7c-0.3,0.2-0.7,0.4-0.9,0.7c-0.9,0.7-1.6,1.2-3.2,1.2C26.2,44.6,25.5,44,24.5,43.4z M23.4,40.5
				c-0.9,0.7-1.6,1.2-3.2,1.2c-1.6,0-2.3-0.5-3.2-1.2c-0.3-0.2-0.6-0.4-0.9-0.7c0.3-0.2,0.7-0.4,0.9-0.7c0.9-0.7,1.6-1.2,3.2-1.2
				s2.3,0.5,3.2,1.2c0.3,0.2,0.6,0.4,0.9,0.7C24,40.1,23.7,40.3,23.4,40.5z M24.5,37.7c-0.3-0.2-0.6-0.4-0.9-0.7
				c0.3-0.2,0.7-0.4,0.9-0.7c0.9-0.7,1.6-1.2,3.2-1.2c1.6,0,2.3,0.5,3.2,1.2c0.3,0.2,0.6,0.4,0.9,0.7c-0.3,0.2-0.7,0.4-0.9,0.7
				c-0.9,0.7-1.6,1.2-3.2,1.2C26.2,38.9,25.5,38.4,24.5,37.7z M23.4,34.9c-0.9,0.7-1.6,1.2-3.2,1.2c-1.6,0-2.3-0.5-3.2-1.2
				c-0.3-0.2-0.6-0.4-0.9-0.7c0.3-0.2,0.7-0.4,0.9-0.7c0.9-0.7,1.6-1.2,3.2-1.2s2.3,0.5,3.2,1.2c0.3,0.2,0.6,0.4,0.9,0.7
				C24,34.4,23.7,34.6,23.4,34.9z M24.5,32c-0.3-0.2-0.6-0.4-0.9-0.7c0.3-0.2,0.7-0.4,0.9-0.7c0.9-0.7,1.6-1.2,3.2-1.2
				c1.6,0,2.3,0.5,3.2,1.2c0.3,0.2,0.6,0.4,0.9,0.7c-0.3,0.2-0.7,0.4-0.9,0.7c-0.9,0.7-1.6,1.2-3.2,1.2C26.2,33.2,25.5,32.7,24.5,32
				z M23.4,29.2c-0.9,0.7-1.6,1.2-3.2,1.2c-1.6,0-2.3-0.5-3.2-1.2c-0.3-0.2-0.6-0.4-0.9-0.7c0.3-0.2,0.7-0.4,0.9-0.7
				c0.9-0.7,1.6-1.2,3.2-1.2s2.3,0.5,3.2,1.2c0.3,0.2,0.6,0.4,0.9,0.7C24,28.7,23.7,29,23.4,29.2z M24.5,26.3
				c-0.3-0.2-0.6-0.4-0.9-0.7c0.3-0.2,0.7-0.4,0.9-0.7c0.9-0.7,1.6-1.2,3.2-1.2c1.6,0,2.3,0.5,3.2,1.2c0.3,0.2,0.6,0.4,0.9,0.7
				c-0.3,0.2-0.7,0.4-0.9,0.7c-0.9,0.7-1.6,1.2-3.2,1.2C26.2,27.6,25.5,27,24.5,26.3z M23.4,23.5c-0.9,0.7-1.6,1.2-3.2,1.2
				c-1.6,0-2.3-0.5-3.2-1.2c-0.3-0.2-0.6-0.4-0.9-0.7c0.3-0.2,0.7-0.4,0.9-0.7c0.9-0.7,1.6-1.2,3.2-1.2s2.3,0.5,3.2,1.2
				c0.3,0.2,0.6,0.4,0.9,0.7C24,23.1,23.7,23.3,23.4,23.5z M24.5,20.7c-0.3-0.2-0.6-0.4-0.9-0.7c0.3-0.2,0.7-0.4,0.9-0.7
				c0.9-0.7,1.6-1.2,3.2-1.2c1.6,0,2.3,0.5,3.2,1.2c0.3,0.2,0.6,0.4,0.9,0.7c-0.3,0.2-0.7,0.4-0.9,0.7c-0.9,0.7-1.6,1.2-3.2,1.2
				C26.2,21.9,25.5,21.4,24.5,20.7z M23.4,17.8c-0.9,0.7-1.6,1.2-3.2,1.2c-1.6,0-2.3-0.5-3.2-1.2c-0.3-0.2-0.6-0.4-0.9-0.7
				c0.3-0.2,0.7-0.4,0.9-0.7c0.9-0.7,1.6-1.2,3.2-1.2s2.3,0.5,3.2,1.2c0.3,0.2,0.6,0.4,0.9,0.7C24,17.4,23.7,17.6,23.4,17.8z
				 M24.5,15c-0.3-0.2-0.6-0.4-0.9-0.7c0.3-0.2,0.7-0.4,0.9-0.7c0.9-0.7,1.6-1.2,3.2-1.2c1.6,0,2.3,0.5,3.2,1.2
				c0.3,0.2,0.6,0.4,0.9,0.7c-0.3,0.2-0.7,0.4-0.9,0.7c-0.9,0.7-1.6,1.2-3.2,1.2C26.2,16.2,25.5,15.7,24.5,15z M23.4,12.2
				c-0.9,0.7-1.6,1.2-3.2,1.2c-1.6,0-2.3-0.5-3.2-1.2c-0.3-0.2-0.6-0.4-0.9-0.7c0.3-0.2,0.7-0.4,0.9-0.7c0.9-0.7,1.6-1.2,3.2-1.2
				s2.3,0.5,3.2,1.2c0.3,0.2,0.6,0.4,0.9,0.7C24,11.7,23.7,11.9,23.4,12.2z M12.6,6.8c1.6,0,2.3,0.5,3.2,1.2
				c0.3,0.2,0.6,0.4,0.9,0.7c-0.3,0.2-0.7,0.4-0.9,0.7c-0.9,0.7-1.6,1.2-3.2,1.2c-1.6,0-2.3-0.5-3.2-1.2C9.1,9.1,8.8,8.9,8.5,8.7
				C8.8,8.5,9.1,8.2,9.4,8C10.3,7.3,11.1,6.8,12.6,6.8z M-2.5,6.8c1.6,0,2.3,0.5,3.2,1.2C1,8.2,1.3,8.5,1.7,8.7
				C1.3,8.9,1,9.1,0.7,9.3c-0.9,0.7-1.6,1.2-3.2,1.2c-1.6,0-2.3-0.5-3.2-1.2C-6,9.1-6.3,8.9-6.7,8.7C-6.3,8.5-6,8.2-5.7,8
				C-4.8,7.3-4.1,6.8-2.5,6.8z M-17.6,6.8c1.6,0,2.3,0.5,3.2,1.2c0.3,0.2,0.6,0.4,0.9,0.7c-0.3,0.2-0.7,0.4-0.9,0.7
				c-0.9,0.7-1.6,1.2-3.2,1.2s-2.3-0.5-3.2-1.2c-0.3-0.2-0.6-0.4-0.9-0.7c0.3-0.2,0.7-0.4,0.9-0.7C-19.9,7.3-19.2,6.8-17.6,6.8z
				 M-17.6,50.3c-1.6,0-2.3-0.5-3.2-1.2c-0.3-0.2-0.6-0.4-0.9-0.7c0.3-0.2,0.7-0.4,0.9-0.7c0.9-0.7,1.6-1.2,3.2-1.2
				c1.6,0,2.3,0.5,3.2,1.2c0.3,0.2,0.6,0.4,0.9,0.7c-0.3,0.2-0.7,0.4-0.9,0.7C-15.3,49.7-16,50.3-17.6,50.3z M-2.5,50.3
				c-1.6,0-2.3-0.5-3.2-1.2c-0.3-0.2-0.6-0.4-0.9-0.7c0.3-0.2,0.7-0.4,0.9-0.7c0.9-0.7,1.6-1.2,3.2-1.2s2.3,0.5,3.2,1.2
				c0.3,0.2,0.6,0.4,0.9,0.7C1.3,48.6,1,48.8,0.7,49C-0.2,49.7-0.9,50.3-2.5,50.3z M12.6,50.3c-1.6,0-2.3-0.5-3.2-1.2
				c-0.3-0.2-0.6-0.4-0.9-0.7c0.3-0.2,0.7-0.4,0.9-0.7c0.9-0.7,1.6-1.2,3.2-1.2c1.6,0,2.3,0.5,3.2,1.2c0.3,0.2,0.6,0.4,0.9,0.7
				c-0.3,0.2-0.7,0.4-0.9,0.7C14.9,49.7,14.2,50.3,12.6,50.3z M27.8,50.3c-1.6,0-2.3-0.5-3.2-1.2c-0.3-0.2-0.6-0.4-0.9-0.7
				c0.3-0.2,0.7-0.4,0.9-0.7c0.9-0.7,1.6-1.2,3.2-1.2c1.6,0,2.3,0.5,3.2,1.2c0.3,0.2,0.6,0.4,0.9,0.7c-0.3,0.2-0.7,0.4-0.9,0.7
				C30.1,49.7,29.3,50.3,27.8,50.3z"/>
		</defs>
		<clipPath id="SVGID_6_">
			<use xlink:href="#SVGID_5_"  overflow="visible"/>
		</clipPath>
		<path clip-path="url(#SVGID_6_)" d="M39.4,25.5c10.1-4.2,19.1-9.5,10.4-20v0c-9,3.1-16.6,11.1-23.9,17.3
			c1.3-5.3,4.9-11.9-1.2-13.3c-6,0.7-6.2,6.7-7.2,12.1C5.9,24.8,8.3,32.4,6,38c-1.9,5.8-2.1,10.8,5.6,12.6
			c-3.8,18.7,9.8,20.7,20.1,25.9c-4.4,2.9-17,7.4-8.7,9.9c-3.2,6.3,2,8.5,14.5,5.3c4.1,5.9,35.4,5.3,37.1-3.9
			c24.5-7,20.1-22.9,10.5-20.6c-4.5-24.8-15.9-37.8-40.9-27.9C34.8,38.9,32,34.4,30.9,29c1.6-0.7,3.4-1.4,5.1-2.1"/>
	</g>
</g>
<g id="Layer_4">
	<g>
		<defs>
			<path id="SVGID_7_" d="M95.9,9.6c0.5,0,0.9-0.4,0.9-0.9l0,0c0,0,0,0,0,0c0-0.5-0.4-0.9-0.9-0.9c-1.6,0-2.3-0.5-3.2-1.2
				c-1-0.8-2.1-1.6-4.3-1.6c-2.2,0-3.3,0.9-4.3,1.6c-0.9,0.7-1.6,1.2-3.2,1.2c-1.6,0-2.3-0.5-3.2-1.2c-1-0.8-2.1-1.6-4.3-1.6
				c-2.2,0-3.3,0.9-4.3,1.6c-0.9,0.7-1.6,1.2-3.2,1.2s-2.3-0.5-3.2-1.2c-1-0.8-2.1-1.6-4.3-1.6c-2.2,0-3.3,0.9-4.3,1.6
				c-0.9,0.7-1.6,1.2-3.2,1.2s-2.3-0.5-3.2-1.2c-1-0.8-2.1-1.6-4.3-1.6c-2.2,0-3.3,0.9-4.3,1.6c-0.9,0.7-1.6,1.2-3.2,1.2
				c-0.5,0-0.9,0.4-0.9,0.9c0,0,0,0,0,0l0,0c0,0.5,0.4,0.9,0.9,0.9c1.6,0,2.3,0.5,3.2,1.2c0.3,0.2,0.6,0.4,0.9,0.7
				c-0.3,0.2-0.7,0.4-0.9,0.7c-0.9,0.7-1.6,1.2-3.2,1.2c-0.5,0-0.9,0.4-0.9,0.9c0,0,0,0,0,0l0,0c0,0.5,0.4,0.9,0.9,0.9
				c1.6,0,2.3,0.5,3.2,1.2c0.3,0.2,0.6,0.4,0.9,0.7c-0.3,0.2-0.7,0.4-0.9,0.7c-0.9,0.7-1.6,1.2-3.2,1.2c-0.5,0-0.9,0.4-0.9,0.9
				c0,0,0,0,0,0l0,0c0,0.5,0.4,0.9,0.9,0.9c1.6,0,2.3,0.5,3.2,1.2c0.3,0.2,0.6,0.4,0.9,0.7c-0.3,0.2-0.7,0.4-0.9,0.7
				c-0.9,0.7-1.6,1.2-3.2,1.2c-0.5,0-0.9,0.4-0.9,0.9l0,0l0,0c0,0.5,0.4,0.9,0.9,0.9c1.6,0,2.3,0.5,3.2,1.2c0.3,0.2,0.6,0.4,0.9,0.7
				c-0.3,0.2-0.7,0.4-0.9,0.7c-0.9,0.7-1.6,1.2-3.2,1.2c-0.5,0-0.9,0.4-0.9,0.9l0,0l0,0c0,0.5,0.4,0.9,0.9,0.9
				c1.6,0,2.3,0.5,3.2,1.2c0.3,0.2,0.6,0.4,0.9,0.7c-0.3,0.2-0.7,0.4-0.9,0.7c-0.9,0.7-1.6,1.2-3.2,1.2c-0.5,0-0.9,0.4-0.9,0.9l0,0
				l0,0c0,0.5,0.4,0.9,0.9,0.9c1.6,0,2.3,0.5,3.2,1.2c0.3,0.2,0.6,0.4,0.9,0.7c-0.3,0.2-0.7,0.4-0.9,0.7c-0.9,0.7-1.6,1.2-3.2,1.2
				c-0.5,0-0.9,0.4-0.9,0.9c0,0,0,0,0,0l0,0c0,0.5,0.4,0.9,0.9,0.9c1.6,0,2.3,0.5,3.2,1.2c0.3,0.2,0.6,0.4,0.9,0.7
				c-0.3,0.2-0.7,0.4-0.9,0.7c-0.9,0.7-1.6,1.2-3.2,1.2c-0.5,0-0.9,0.4-0.9,0.9l0,0l0,0c0,0.5,0.4,0.9,0.9,0.9
				c1.6,0,2.3,0.5,3.2,1.2c1,0.8,2.1,1.6,4.3,1.6s3.3-0.9,4.3-1.6c0.9-0.7,1.6-1.2,3.2-1.2c1.6,0,2.3,0.5,3.2,1.2
				c1,0.8,2.1,1.6,4.3,1.6c2.2,0,3.3-0.9,4.3-1.6c0.9-0.7,1.6-1.2,3.2-1.2c1.6,0,2.3,0.5,3.2,1.2c1,0.8,2.1,1.6,4.3,1.6
				s3.3-0.9,4.3-1.6c0.9-0.7,1.6-1.2,3.2-1.2c1.6,0,2.3,0.5,3.2,1.2c1,0.8,2.1,1.6,4.3,1.6c2.2,0,3.3-0.9,4.3-1.6
				c0.9-0.7,1.6-1.2,3.2-1.2c0.5,0,0.9-0.4,0.9-0.9l0,0l0,0c0-0.5-0.4-0.9-0.9-0.9c-1.6,0-2.3-0.5-3.2-1.2c-0.3-0.2-0.6-0.4-0.9-0.7
				c0.3-0.2,0.7-0.4,0.9-0.7c0.9-0.7,1.6-1.2,3.2-1.2c0.5,0,0.9-0.4,0.9-0.9l0,0c0,0,0,0,0,0c0-0.5-0.4-0.9-0.9-0.9
				c-1.6,0-2.3-0.5-3.2-1.2c-0.3-0.2-0.6-0.4-0.9-0.7c0.3-0.2,0.7-0.4,0.9-0.7c0.9-0.7,1.6-1.2,3.2-1.2c0.5,0,0.9-0.4,0.9-0.9l0,0
				l0,0c0-0.5-0.4-0.9-0.9-0.9c-1.6,0-2.3-0.5-3.2-1.2c-0.3-0.2-0.6-0.4-0.9-0.7c0.3-0.2,0.7-0.4,0.9-0.7c0.9-0.7,1.6-1.2,3.2-1.2
				c0.5,0,0.9-0.4,0.9-0.9l0,0l0,0c0-0.5-0.4-0.9-0.9-0.9c-1.6,0-2.3-0.5-3.2-1.2c-0.3-0.2-0.6-0.4-0.9-0.7c0.3-0.2,0.7-0.4,0.9-0.7
				c0.9-0.7,1.6-1.2,3.2-1.2c0.5,0,0.9-0.4,0.9-0.9l0,0l0,0c0-0.5-0.4-0.9-0.9-0.9c-1.6,0-2.3-0.5-3.2-1.2c-0.3-0.2-0.6-0.4-0.9-0.7
				c0.3-0.2,0.7-0.4,0.9-0.7c0.9-0.7,1.6-1.2,3.2-1.2c0.5,0,0.9-0.4,0.9-0.9l0,0c0,0,0,0,0,0c0-0.5-0.4-0.9-0.9-0.9
				c-1.6,0-2.3-0.5-3.2-1.2c-0.3-0.2-0.6-0.4-0.9-0.7c0.3-0.2,0.7-0.4,0.9-0.7c0.9-0.7,1.6-1.2,3.2-1.2c0.5,0,0.9-0.4,0.9-0.9l0,0
				c0,0,0,0,0,0c0-0.5-0.4-0.9-0.9-0.9c-1.6,0-2.3-0.5-3.2-1.2c-0.3-0.2-0.6-0.4-0.9-0.7c0.3-0.2,0.7-0.4,0.9-0.7
				C93.6,10.2,94.4,9.6,95.9,9.6z M88.4,6.8c1.6,0,2.3,0.5,3.2,1.2c0.3,0.2,0.6,0.4,0.9,0.7c-0.3,0.2-0.7,0.4-0.9,0.7
				c-0.9,0.7-1.6,1.2-3.2,1.2c-1.6,0-2.3-0.5-3.2-1.2c-0.3-0.2-0.6-0.4-0.9-0.7c0.3-0.2,0.7-0.4,0.9-0.7C86.1,7.3,86.8,6.8,88.4,6.8
				z M80.8,47.4c-1.6,0-2.3-0.5-3.2-1.2c-0.3-0.2-0.6-0.4-0.9-0.7c0.3-0.2,0.7-0.4,0.9-0.7c0.9-0.7,1.6-1.2,3.2-1.2
				c1.6,0,2.3,0.5,3.2,1.2c0.3,0.2,0.6,0.4,0.9,0.7c-0.3,0.2-0.7,0.4-0.9,0.7C83.1,46.9,82.4,47.4,80.8,47.4z M65.7,47.4
				c-1.6,0-2.3-0.5-3.2-1.2c-0.3-0.2-0.6-0.4-0.9-0.7c0.3-0.2,0.7-0.4,0.9-0.7c0.9-0.7,1.6-1.2,3.2-1.2c1.6,0,2.3,0.5,3.2,1.2
				c0.3,0.2,0.6,0.4,0.9,0.7c-0.3,0.2-0.7,0.4-0.9,0.7C68,46.9,67.3,47.4,65.7,47.4z M50.6,47.4c-1.6,0-2.3-0.5-3.2-1.2
				c-0.3-0.2-0.6-0.4-0.9-0.7c0.3-0.2,0.7-0.4,0.9-0.7c0.9-0.7,1.6-1.2,3.2-1.2c1.6,0,2.3,0.5,3.2,1.2c0.3,0.2,0.6,0.4,0.9,0.7
				c-0.3,0.2-0.7,0.4-0.9,0.7C52.9,46.9,52.1,47.4,50.6,47.4z M50.6,9.6c1.6,0,2.3,0.5,3.2,1.2c0.3,0.2,0.6,0.4,0.9,0.7
				c-0.3,0.2-0.7,0.4-0.9,0.7c-0.9,0.7-1.6,1.2-3.2,1.2s-2.3-0.5-3.2-1.2c-0.3-0.2-0.6-0.4-0.9-0.7c0.3-0.2,0.7-0.4,0.9-0.7
				C48.3,10.2,49,9.6,50.6,9.6z M65.7,9.6c1.6,0,2.3,0.5,3.2,1.2c0.3,0.2,0.6,0.4,0.9,0.7c-0.3,0.2-0.7,0.4-0.9,0.7
				c-0.9,0.7-1.6,1.2-3.2,1.2c-1.6,0-2.3-0.5-3.2-1.2c-0.3-0.2-0.6-0.4-0.9-0.7c0.3-0.2,0.7-0.4,0.9-0.7
				C63.4,10.2,64.1,9.6,65.7,9.6z M73.2,44.6c-1.6,0-2.3-0.5-3.2-1.2c-0.3-0.2-0.6-0.4-0.9-0.7c0.3-0.2,0.7-0.4,0.9-0.7
				c0.9-0.7,1.6-1.2,3.2-1.2s2.3,0.5,3.2,1.2c0.3,0.2,0.6,0.4,0.9,0.7c-0.3,0.2-0.7,0.4-0.9,0.7C75.5,44,74.8,44.6,73.2,44.6z
				 M58.1,44.6c-1.6,0-2.3-0.5-3.2-1.2c-0.3-0.2-0.6-0.4-0.9-0.7c0.3-0.2,0.7-0.4,0.9-0.7c0.9-0.7,1.6-1.2,3.2-1.2s2.3,0.5,3.2,1.2
				c0.3,0.2,0.6,0.4,0.9,0.7c-0.3,0.2-0.7,0.4-0.9,0.7C60.4,44,59.7,44.6,58.1,44.6z M58.1,12.4c1.6,0,2.3,0.5,3.2,1.2
				c0.3,0.2,0.6,0.4,0.9,0.7c-0.3,0.2-0.7,0.4-0.9,0.7c-0.9,0.7-1.6,1.2-3.2,1.2c-1.6,0-2.3-0.5-3.2-1.2c-0.3-0.2-0.6-0.4-0.9-0.7
				c0.3-0.2,0.7-0.4,0.9-0.7C55.8,13,56.5,12.4,58.1,12.4z M65.7,41.8c-1.6,0-2.3-0.5-3.2-1.2c-0.3-0.2-0.6-0.4-0.9-0.7
				c0.3-0.2,0.7-0.4,0.9-0.7c0.9-0.7,1.6-1.2,3.2-1.2c1.6,0,2.3,0.5,3.2,1.2c0.3,0.2,0.6,0.4,0.9,0.7c-0.3,0.2-0.7,0.4-0.9,0.7
				C68,41.2,67.3,41.8,65.7,41.8z M65.7,36.1c-1.6,0-2.3-0.5-3.2-1.2c-0.3-0.2-0.6-0.4-0.9-0.7c0.3-0.2,0.7-0.4,0.9-0.7
				c0.9-0.7,1.6-1.2,3.2-1.2c1.6,0,2.3,0.5,3.2,1.2c0.3,0.2,0.6,0.4,0.9,0.7c-0.3,0.2-0.7,0.4-0.9,0.7C68,35.5,67.3,36.1,65.7,36.1z
				 M65.7,30.4c-1.6,0-2.3-0.5-3.2-1.2c-0.3-0.2-0.6-0.4-0.9-0.7c0.3-0.2,0.7-0.4,0.9-0.7c0.9-0.7,1.6-1.2,3.2-1.2
				c1.6,0,2.3,0.5,3.2,1.2c0.3,0.2,0.6,0.4,0.9,0.7c-0.3,0.2-0.7,0.4-0.9,0.7C68,29.9,67.3,30.4,65.7,30.4z M65.7,24.7
				c-1.6,0-2.3-0.5-3.2-1.2c-0.3-0.2-0.6-0.4-0.9-0.7c0.3-0.2,0.7-0.4,0.9-0.7c0.9-0.7,1.6-1.2,3.2-1.2c1.6,0,2.3,0.5,3.2,1.2
				c0.3,0.2,0.6,0.4,0.9,0.7c-0.3,0.2-0.7,0.4-0.9,0.7C68,24.2,67.3,24.7,65.7,24.7z M65.7,19.1c-1.6,0-2.3-0.5-3.2-1.2
				c-0.3-0.2-0.6-0.4-0.9-0.7c0.3-0.2,0.7-0.4,0.9-0.7c0.9-0.7,1.6-1.2,3.2-1.2c1.6,0,2.3,0.5,3.2,1.2c0.3,0.2,0.6,0.4,0.9,0.7
				c-0.3,0.2-0.7,0.4-0.9,0.7C68,18.5,67.3,19.1,65.7,19.1z M58.1,18.1c1.6,0,2.3,0.5,3.2,1.2c0.3,0.2,0.6,0.4,0.9,0.7
				c-0.3,0.2-0.7,0.4-0.9,0.7c-0.9,0.7-1.6,1.2-3.2,1.2c-1.6,0-2.3-0.5-3.2-1.2c-0.3-0.2-0.6-0.4-0.9-0.7c0.3-0.2,0.7-0.4,0.9-0.7
				C55.8,18.7,56.5,18.1,58.1,18.1z M58.1,23.8c1.6,0,2.3,0.5,3.2,1.2c0.3,0.2,0.6,0.4,0.9,0.7c-0.3,0.2-0.7,0.4-0.9,0.7
				c-0.9,0.7-1.6,1.2-3.2,1.2c-1.6,0-2.3-0.5-3.2-1.2c-0.3-0.2-0.6-0.4-0.9-0.7c0.3-0.2,0.7-0.4,0.9-0.7
				C55.8,24.3,56.5,23.8,58.1,23.8z M58.1,29.5c1.6,0,2.3,0.5,3.2,1.2c0.3,0.2,0.6,0.4,0.9,0.7c-0.3,0.2-0.7,0.4-0.9,0.7
				c-0.9,0.7-1.6,1.2-3.2,1.2c-1.6,0-2.3-0.5-3.2-1.2c-0.3-0.2-0.6-0.4-0.9-0.7c0.3-0.2,0.7-0.4,0.9-0.7
				C55.8,30,56.5,29.5,58.1,29.5z M58.1,35.1c1.6,0,2.3,0.5,3.2,1.2c0.3,0.2,0.6,0.4,0.9,0.7c-0.3,0.2-0.7,0.4-0.9,0.7
				c-0.9,0.7-1.6,1.2-3.2,1.2c-1.6,0-2.3-0.5-3.2-1.2c-0.3-0.2-0.6-0.4-0.9-0.7c0.3-0.2,0.7-0.4,0.9-0.7
				C55.8,35.7,56.5,35.1,58.1,35.1z M73.2,38.9c-1.6,0-2.3-0.5-3.2-1.2c-0.3-0.2-0.6-0.4-0.9-0.7c0.3-0.2,0.7-0.4,0.9-0.7
				c0.9-0.7,1.6-1.2,3.2-1.2s2.3,0.5,3.2,1.2c0.3,0.2,0.6,0.4,0.9,0.7c-0.3,0.2-0.7,0.4-0.9,0.7C75.5,38.4,74.8,38.9,73.2,38.9z
				 M73.2,33.2c-1.6,0-2.3-0.5-3.2-1.2c-0.3-0.2-0.6-0.4-0.9-0.7c0.3-0.2,0.7-0.4,0.9-0.7c0.9-0.7,1.6-1.2,3.2-1.2s2.3,0.5,3.2,1.2
				c0.3,0.2,0.6,0.4,0.9,0.7c-0.3,0.2-0.7,0.4-0.9,0.7C75.5,32.7,74.8,33.2,73.2,33.2z M73.2,27.6c-1.6,0-2.3-0.5-3.2-1.2
				c-0.3-0.2-0.6-0.4-0.9-0.7c0.3-0.2,0.7-0.4,0.9-0.7c0.9-0.7,1.6-1.2,3.2-1.2s2.3,0.5,3.2,1.2c0.3,0.2,0.6,0.4,0.9,0.7
				c-0.3,0.2-0.7,0.4-0.9,0.7C75.5,27,74.8,27.6,73.2,27.6z M73.2,21.9c-1.6,0-2.3-0.5-3.2-1.2c-0.3-0.2-0.6-0.4-0.9-0.7
				c0.3-0.2,0.7-0.4,0.9-0.7c0.9-0.7,1.6-1.2,3.2-1.2s2.3,0.5,3.2,1.2c0.3,0.2,0.6,0.4,0.9,0.7c-0.3,0.2-0.7,0.4-0.9,0.7
				C75.5,21.4,74.8,21.9,73.2,21.9z M73.2,16.2c-1.6,0-2.3-0.5-3.2-1.2c-0.3-0.2-0.6-0.4-0.9-0.7c0.3-0.2,0.7-0.4,0.9-0.7
				c0.9-0.7,1.6-1.2,3.2-1.2s2.3,0.5,3.2,1.2c0.3,0.2,0.6,0.4,0.9,0.7c-0.3,0.2-0.7,0.4-0.9,0.7C75.5,15.7,74.8,16.2,73.2,16.2z
				 M46.2,13.7c0.3,0.2,0.6,0.4,0.9,0.7c-0.3,0.2-0.7,0.4-0.9,0.7c-0.9,0.7-1.6,1.2-3.2,1.2s-2.3-0.5-3.2-1.2
				c-0.3-0.2-0.6-0.4-0.9-0.7c0.3-0.2,0.7-0.4,0.9-0.7c0.9-0.7,1.6-1.2,3.2-1.2C44.6,12.4,45.3,13,46.2,13.7z M47.3,16.5
				c0.9-0.7,1.6-1.2,3.2-1.2c1.6,0,2.3,0.5,3.2,1.2c0.3,0.2,0.6,0.4,0.9,0.7c-0.3,0.2-0.7,0.4-0.9,0.7c-0.9,0.7-1.6,1.2-3.2,1.2
				c-1.6,0-2.3-0.5-3.2-1.2c-0.3-0.2-0.6-0.4-0.9-0.7C46.7,17,47,16.7,47.3,16.5z M46.2,19.3c0.3,0.2,0.6,0.4,0.9,0.7
				c-0.3,0.2-0.7,0.4-0.9,0.7c-0.9,0.7-1.6,1.2-3.2,1.2s-2.3-0.5-3.2-1.2c-0.3-0.2-0.6-0.4-0.9-0.7c0.3-0.2,0.7-0.4,0.9-0.7
				c0.9-0.7,1.6-1.2,3.2-1.2C44.6,18.1,45.3,18.7,46.2,19.3z M47.3,22.2c0.9-0.7,1.6-1.2,3.2-1.2c1.6,0,2.3,0.5,3.2,1.2
				c0.3,0.2,0.6,0.4,0.9,0.7c-0.3,0.2-0.7,0.4-0.9,0.7c-0.9,0.7-1.6,1.2-3.2,1.2c-1.6,0-2.3-0.5-3.2-1.2c-0.3-0.2-0.6-0.4-0.9-0.7
				C46.7,22.6,47,22.4,47.3,22.2z M46.2,25c0.3,0.2,0.6,0.4,0.9,0.7c-0.3,0.2-0.7,0.4-0.9,0.7c-0.9,0.7-1.6,1.2-3.2,1.2
				s-2.3-0.5-3.2-1.2c-0.3-0.2-0.6-0.4-0.9-0.7c0.3-0.2,0.7-0.4,0.9-0.7c0.9-0.7,1.6-1.2,3.2-1.2C44.6,23.8,45.3,24.3,46.2,25z
				 M47.3,27.9c0.9-0.7,1.6-1.2,3.2-1.2c1.6,0,2.3,0.5,3.2,1.2c0.3,0.2,0.6,0.4,0.9,0.7c-0.3,0.2-0.7,0.4-0.9,0.7
				c-0.9,0.7-1.6,1.2-3.2,1.2c-1.6,0-2.3-0.5-3.2-1.2c-0.3-0.2-0.6-0.4-0.9-0.7C46.7,28.3,47,28.1,47.3,27.9z M46.2,30.7
				c0.3,0.2,0.6,0.4,0.9,0.7c-0.3,0.2-0.7,0.4-0.9,0.7c-0.9,0.7-1.6,1.2-3.2,1.2s-2.3-0.5-3.2-1.2c-0.3-0.2-0.6-0.4-0.9-0.7
				c0.3-0.2,0.7-0.4,0.9-0.7c0.9-0.7,1.6-1.2,3.2-1.2C44.6,29.5,45.3,30,46.2,30.7z M47.3,33.5c0.9-0.7,1.6-1.2,3.2-1.2
				c1.6,0,2.3,0.5,3.2,1.2c0.3,0.2,0.6,0.4,0.9,0.7c-0.3,0.2-0.7,0.4-0.9,0.7c-0.9,0.7-1.6,1.2-3.2,1.2c-1.6,0-2.3-0.5-3.2-1.2
				c-0.3-0.2-0.6-0.4-0.9-0.7C46.7,34,47,33.8,47.3,33.5z M46.2,36.4c0.3,0.2,0.6,0.4,0.9,0.7c-0.3,0.2-0.7,0.4-0.9,0.7
				c-0.9,0.7-1.6,1.2-3.2,1.2s-2.3-0.5-3.2-1.2c-0.3-0.2-0.6-0.4-0.9-0.7c0.3-0.2,0.7-0.4,0.9-0.7c0.9-0.7,1.6-1.2,3.2-1.2
				C44.6,35.1,45.3,35.7,46.2,36.4z M47.3,39.2c0.9-0.7,1.6-1.2,3.2-1.2c1.6,0,2.3,0.5,3.2,1.2c0.3,0.2,0.6,0.4,0.9,0.7
				c-0.3,0.2-0.7,0.4-0.9,0.7c-0.9,0.7-1.6,1.2-3.2,1.2c-1.6,0-2.3-0.5-3.2-1.2c-0.3-0.2-0.6-0.4-0.9-0.7
				C46.7,39.7,47,39.4,47.3,39.2z M46.2,42c0.3,0.2,0.6,0.4,0.9,0.7c-0.3,0.2-0.7,0.4-0.9,0.7c-0.9,0.7-1.6,1.2-3.2,1.2
				s-2.3-0.5-3.2-1.2c-0.3-0.2-0.6-0.4-0.9-0.7c0.3-0.2,0.7-0.4,0.9-0.7c0.9-0.7,1.6-1.2,3.2-1.2C44.6,40.8,45.3,41.4,46.2,42z
				 M85.1,43.4c-0.3-0.2-0.6-0.4-0.9-0.7c0.3-0.2,0.7-0.4,0.9-0.7c0.9-0.7,1.6-1.2,3.2-1.2c1.6,0,2.3,0.5,3.2,1.2
				c0.3,0.2,0.6,0.4,0.9,0.7c-0.3,0.2-0.7,0.4-0.9,0.7c-0.9,0.7-1.6,1.2-3.2,1.2C86.8,44.6,86.1,44,85.1,43.4z M84,40.5
				c-0.9,0.7-1.6,1.2-3.2,1.2c-1.6,0-2.3-0.5-3.2-1.2c-0.3-0.2-0.6-0.4-0.9-0.7c0.3-0.2,0.7-0.4,0.9-0.7c0.9-0.7,1.6-1.2,3.2-1.2
				c1.6,0,2.3,0.5,3.2,1.2c0.3,0.2,0.6,0.4,0.9,0.7C84.6,40.1,84.3,40.3,84,40.5z M85.1,37.7c-0.3-0.2-0.6-0.4-0.9-0.7
				c0.3-0.2,0.7-0.4,0.9-0.7c0.9-0.7,1.6-1.2,3.2-1.2c1.6,0,2.3,0.5,3.2,1.2c0.3,0.2,0.6,0.4,0.9,0.7c-0.3,0.2-0.7,0.4-0.9,0.7
				c-0.9,0.7-1.6,1.2-3.2,1.2C86.8,38.9,86.1,38.4,85.1,37.7z M84,34.9c-0.9,0.7-1.6,1.2-3.2,1.2c-1.6,0-2.3-0.5-3.2-1.2
				c-0.3-0.2-0.6-0.4-0.9-0.7c0.3-0.2,0.7-0.4,0.9-0.7c0.9-0.7,1.6-1.2,3.2-1.2c1.6,0,2.3,0.5,3.2,1.2c0.3,0.2,0.6,0.4,0.9,0.7
				C84.6,34.4,84.3,34.6,84,34.9z M85.1,32c-0.3-0.2-0.6-0.4-0.9-0.7c0.3-0.2,0.7-0.4,0.9-0.7c0.9-0.7,1.6-1.2,3.2-1.2
				c1.6,0,2.3,0.5,3.2,1.2c0.3,0.2,0.6,0.4,0.9,0.7c-0.3,0.2-0.7,0.4-0.9,0.7c-0.9,0.7-1.6,1.2-3.2,1.2C86.8,33.2,86.1,32.7,85.1,32
				z M84,29.2c-0.9,0.7-1.6,1.2-3.2,1.2c-1.6,0-2.3-0.5-3.2-1.2c-0.3-0.2-0.6-0.4-0.9-0.7c0.3-0.2,0.7-0.4,0.9-0.7
				c0.9-0.7,1.6-1.2,3.2-1.2c1.6,0,2.3,0.5,3.2,1.2c0.3,0.2,0.6,0.4,0.9,0.7C84.6,28.7,84.3,29,84,29.2z M85.1,26.3
				c-0.3-0.2-0.6-0.4-0.9-0.7c0.3-0.2,0.7-0.4,0.9-0.7c0.9-0.7,1.6-1.2,3.2-1.2c1.6,0,2.3,0.5,3.2,1.2c0.3,0.2,0.6,0.4,0.9,0.7
				c-0.3,0.2-0.7,0.4-0.9,0.7c-0.9,0.7-1.6,1.2-3.2,1.2C86.8,27.6,86.1,27,85.1,26.3z M84,23.5c-0.9,0.7-1.6,1.2-3.2,1.2
				c-1.6,0-2.3-0.5-3.2-1.2c-0.3-0.2-0.6-0.4-0.9-0.7c0.3-0.2,0.7-0.4,0.9-0.7c0.9-0.7,1.6-1.2,3.2-1.2c1.6,0,2.3,0.5,3.2,1.2
				c0.3,0.2,0.6,0.4,0.9,0.7C84.6,23.1,84.3,23.3,84,23.5z M85.1,20.7c-0.3-0.2-0.6-0.4-0.9-0.7c0.3-0.2,0.7-0.4,0.9-0.7
				c0.9-0.7,1.6-1.2,3.2-1.2c1.6,0,2.3,0.5,3.2,1.2c0.3,0.2,0.6,0.4,0.9,0.7c-0.3,0.2-0.7,0.4-0.9,0.7c-0.9,0.7-1.6,1.2-3.2,1.2
				C86.8,21.9,86.1,21.4,85.1,20.7z M84,17.8c-0.9,0.7-1.6,1.2-3.2,1.2c-1.6,0-2.3-0.5-3.2-1.2c-0.3-0.2-0.6-0.4-0.9-0.7
				c0.3-0.2,0.7-0.4,0.9-0.7c0.9-0.7,1.6-1.2,3.2-1.2c1.6,0,2.3,0.5,3.2,1.2c0.3,0.2,0.6,0.4,0.9,0.7C84.6,17.4,84.3,17.6,84,17.8z
				 M85.1,15c-0.3-0.2-0.6-0.4-0.9-0.7c0.3-0.2,0.7-0.4,0.9-0.7c0.9-0.7,1.6-1.2,3.2-1.2c1.6,0,2.3,0.5,3.2,1.2
				c0.3,0.2,0.6,0.4,0.9,0.7c-0.3,0.2-0.7,0.4-0.9,0.7c-0.9,0.7-1.6,1.2-3.2,1.2C86.8,16.2,86.1,15.7,85.1,15z M84,12.2
				c-0.9,0.7-1.6,1.2-3.2,1.2c-1.6,0-2.3-0.5-3.2-1.2c-0.3-0.2-0.6-0.4-0.9-0.7c0.3-0.2,0.7-0.4,0.9-0.7c0.9-0.7,1.6-1.2,3.2-1.2
				c1.6,0,2.3,0.5,3.2,1.2c0.3,0.2,0.6,0.4,0.9,0.7C84.6,11.7,84.3,11.9,84,12.2z M73.2,6.8c1.6,0,2.3,0.5,3.2,1.2
				c0.3,0.2,0.6,0.4,0.9,0.7c-0.3,0.2-0.7,0.4-0.9,0.7c-0.9,0.7-1.6,1.2-3.2,1.2c-1.6,0-2.3-0.5-3.2-1.2c-0.3-0.2-0.6-0.4-0.9-0.7
				C69.4,8.5,69.7,8.2,70,8C70.9,7.3,71.7,6.8,73.2,6.8z M58.1,6.8c1.6,0,2.3,0.5,3.2,1.2c0.3,0.2,0.6,0.4,0.9,0.7
				c-0.3,0.2-0.7,0.4-0.9,0.7c-0.9,0.7-1.6,1.2-3.2,1.2c-1.6,0-2.3-0.5-3.2-1.2c-0.3-0.2-0.6-0.4-0.9-0.7c0.3-0.2,0.7-0.4,0.9-0.7
				C55.8,7.3,56.5,6.8,58.1,6.8z M43,6.8c1.6,0,2.3,0.5,3.2,1.2c0.3,0.2,0.6,0.4,0.9,0.7c-0.3,0.2-0.7,0.4-0.9,0.7
				c-0.9,0.7-1.6,1.2-3.2,1.2s-2.3-0.5-3.2-1.2c-0.3-0.2-0.6-0.4-0.9-0.7c0.3-0.2,0.7-0.4,0.9-0.7C40.7,7.3,41.4,6.8,43,6.8z
				 M43,50.3c-1.6,0-2.3-0.5-3.2-1.2c-0.3-0.2-0.6-0.4-0.9-0.7c0.3-0.2,0.7-0.4,0.9-0.7c0.9-0.7,1.6-1.2,3.2-1.2
				c1.6,0,2.3,0.5,3.2,1.2c0.3,0.2,0.6,0.4,0.9,0.7c-0.3,0.2-0.7,0.4-0.9,0.7C45.3,49.7,44.6,50.3,43,50.3z M58.1,50.3
				c-1.6,0-2.3-0.5-3.2-1.2c-0.3-0.2-0.6-0.4-0.9-0.7c0.3-0.2,0.7-0.4,0.9-0.7c0.9-0.7,1.6-1.2,3.2-1.2s2.3,0.5,3.2,1.2
				c0.3,0.2,0.6,0.4,0.9,0.7c-0.3,0.2-0.7,0.4-0.9,0.7C60.4,49.7,59.7,50.3,58.1,50.3z M73.2,50.3c-1.6,0-2.3-0.5-3.2-1.2
				c-0.3-0.2-0.6-0.4-0.9-0.7c0.3-0.2,0.7-0.4,0.9-0.7c0.9-0.7,1.6-1.2,3.2-1.2s2.3,0.5,3.2,1.2c0.3,0.2,0.6,0.4,0.9,0.7
				c-0.3,0.2-0.7,0.4-0.9,0.7C75.5,49.7,74.8,50.3,73.2,50.3z M88.4,50.3c-1.6,0-2.3-0.5-3.2-1.2c-0.3-0.2-0.6-0.4-0.9-0.7
				c0.3-0.2,0.7-0.4,0.9-0.7c0.9-0.7,1.6-1.2,3.2-1.2c1.6,0,2.3,0.5,3.2,1.2c0.3,0.2,0.6,0.4,0.9,0.7c-0.3,0.2-0.7,0.4-0.9,0.7
				C90.7,49.7,89.9,50.3,88.4,50.3z"/>
		</defs>
		<clipPath id="SVGID_8_">
			<use xlink:href="#SVGID_7_"  overflow="visible"/>
		</clipPath>
		<path clip-path="url(#SVGID_8_)" d="M39.4,25.5c10.1-4.2,19.1-9.5,10.4-20v0c-9,3.1-16.6,11.1-23.9,17.3
			c1.3-5.3,4.9-11.9-1.2-13.3c-6,0.7-6.2,6.7-7.2,12.1C5.9,24.8,8.3,32.4,6,38c-1.9,5.8-2.1,10.8,5.6,12.6
			c-3.8,18.7,9.8,20.7,20.1,25.9c-4.4,2.9-17,7.4-8.7,9.9c-3.2,6.3,2,8.5,14.5,5.3c4.1,5.9,35.4,5.3,37.1-3.9
			c24.5-7,20.1-22.9,10.5-20.6c-4.5-24.8-15.9-37.8-40.9-27.9C34.8,38.9,32,34.4,30.9,29c1.6-0.7,3.4-1.4,5.1-2.1"/>
	</g>
</g>
</svg>
